<svg width="764" height="160" viewBox="0 0 764 160" fill="none" xmlns="http://www.w3.org/2000/svg">
<path d="M49.875 83.625C49.875 74.605 48.72 68.115 46.41 64.155C44.21 60.085 40.03 58.05 33.87 58.05C31.67 58.05 29.25 58.215 26.61 58.545C23.97 58.875 21.99 59.15 20.67 59.37L20.67 129H0.705001L0.705001 45.51C4.555 44.41 9.56 43.365 15.72 42.375C21.99 41.385 28.59 40.89 35.52 40.89C41.46 40.89 46.3 41.66 50.04 43.2C53.89 44.74 57.08 46.775 59.61 49.305C60.82 48.425 62.36 47.49 64.23 46.5C66.1 45.51 68.19 44.63 70.5 43.86C72.81 42.98 75.23 42.265 77.76 41.715C80.4 41.165 83.04 40.89 85.68 40.89C92.39 40.89 97.89 41.88 102.18 43.86C106.58 45.73 109.99 48.425 112.41 51.945C114.94 55.355 116.645 59.535 117.525 64.485C118.515 69.325 119.01 74.66 119.01 80.49V129H99.045L99.045 83.625C99.045 74.605 97.945 68.115 95.745 64.155C93.545 60.085 89.31 58.05 83.04 58.05C79.85 58.05 76.825 58.6 73.965 59.7C71.105 60.69 68.96 61.68 67.53 62.67C68.41 65.42 69.015 68.335 69.345 71.415C69.675 74.495 69.84 77.795 69.84 81.315L69.84 129H49.875L49.875 83.625ZM138.684 86.265C138.684 78.675 139.784 72.02 141.984 66.3C144.294 60.58 147.319 55.85 151.059 52.11C154.799 48.26 159.089 45.4 163.929 43.53C168.769 41.55 173.719 40.56 178.779 40.56C190.659 40.56 199.899 44.245 206.499 51.615C213.209 58.985 216.564 69.985 216.564 84.615C216.564 85.715 216.509 86.98 216.399 88.41C216.399 89.73 216.344 90.94 216.234 92.04L159.309 92.04C159.859 98.97 162.279 104.36 166.569 108.21C170.969 111.95 177.294 113.82 185.544 113.82C190.384 113.82 194.784 113.38 198.744 112.5C202.814 111.62 206.004 110.685 208.314 109.695L210.954 126.03C209.854 126.58 208.314 127.185 206.334 127.845C204.464 128.395 202.264 128.89 199.734 129.33C197.314 129.88 194.674 130.32 191.814 130.65C188.954 130.98 186.039 131.145 183.069 131.145C175.479 131.145 168.879 130.045 163.269 127.845C157.659 125.535 153.039 122.4 149.409 118.44C145.779 114.37 143.084 109.64 141.324 104.25C139.564 98.75 138.684 92.755 138.684 86.265ZM196.599 77.355C196.599 74.605 196.214 72.02 195.444 69.6C194.674 67.07 193.519 64.925 191.979 63.165C190.549 61.295 188.734 59.865 186.534 58.875C184.444 57.775 181.914 57.225 178.944 57.225C175.864 57.225 173.169 57.83 170.859 59.04C168.549 60.14 166.569 61.625 164.919 63.495C163.379 65.365 162.169 67.51 161.289 69.93C160.409 72.35 159.804 74.825 159.474 77.355H196.599ZM253.406 85.605C253.406 94.405 255.496 101.335 259.676 106.395C263.856 111.345 269.631 113.82 277.001 113.82C280.191 113.82 282.886 113.71 285.086 113.49C287.396 113.16 289.266 112.83 290.696 112.5V63C288.936 61.79 286.571 60.69 283.601 59.7C280.741 58.6 277.661 58.05 274.361 58.05C267.101 58.05 261.766 60.525 258.356 65.475C255.056 70.425 253.406 77.135 253.406 85.605ZM310.661 126.36C306.701 127.57 301.696 128.67 295.646 129.66C289.706 130.65 283.436 131.145 276.836 131.145C270.016 131.145 263.911 130.1 258.521 128.01C253.131 125.92 248.511 122.95 244.661 119.1C240.921 115.14 238.006 110.41 235.916 104.91C233.936 99.3 232.946 93.03 232.946 86.1C232.946 79.28 233.771 73.12 235.421 67.62C237.181 62.01 239.711 57.225 243.011 53.265C246.311 49.305 250.326 46.28 255.056 44.19C259.786 41.99 265.231 40.89 271.391 40.89C275.571 40.89 279.256 41.385 282.446 42.375C285.636 43.365 288.386 44.465 290.696 45.675V4.25999L310.661 0.959996V126.36ZM356.152 129H336.187V42.705H356.152V129ZM358.297 17.46C358.297 21.2 357.087 24.17 354.667 26.37C352.247 28.57 349.387 29.67 346.087 29.67C342.677 29.67 339.762 28.57 337.342 26.37C334.922 24.17 333.712 21.2 333.712 17.46C333.712 13.61 334.922 10.585 337.342 8.385C339.762 6.18499 342.677 5.08499 346.087 5.08499C349.387 5.08499 352.247 6.18499 354.667 8.385C357.087 10.585 358.297 13.61 358.297 17.46ZM411.983 114.975C418.143 114.975 422.818 114.645 426.008 113.985V91.875C424.908 91.545 423.313 91.215 421.223 90.885C419.133 90.555 416.823 90.39 414.293 90.39C412.093 90.39 409.838 90.555 407.528 90.885C405.328 91.215 403.293 91.82 401.423 92.7C399.663 93.58 398.233 94.845 397.133 96.495C396.033 98.035 395.483 100.015 395.483 102.435C395.483 107.165 396.968 110.465 399.938 112.335C402.908 114.095 406.923 114.975 411.983 114.975ZM410.333 40.56C416.933 40.56 422.488 41.385 426.998 43.035C431.508 44.685 435.083 46.995 437.723 49.965C440.473 52.935 442.398 56.565 443.498 60.855C444.708 65.035 445.313 69.655 445.313 74.715V127.02C442.233 127.68 437.558 128.45 431.288 129.33C425.128 130.32 418.143 130.815 410.333 130.815C405.163 130.815 400.433 130.32 396.143 129.33C391.853 128.34 388.168 126.745 385.088 124.545C382.118 122.345 379.753 119.485 377.993 115.965C376.343 112.445 375.518 108.1 375.518 102.93C375.518 97.98 376.453 93.8 378.323 90.39C380.303 86.98 382.943 84.23 386.243 82.14C389.543 79.94 393.338 78.4 397.628 77.52C402.028 76.53 406.593 76.035 411.323 76.035C413.523 76.035 415.833 76.2 418.253 76.53C420.673 76.75 423.258 77.19 426.008 77.85V74.55C426.008 72.24 425.733 70.04 425.183 67.95C424.633 65.86 423.643 64.045 422.213 62.505C420.893 60.855 419.078 59.59 416.768 58.71C414.568 57.83 411.763 57.39 408.353 57.39C403.733 57.39 399.498 57.72 395.648 58.38C391.798 59.04 388.663 59.81 386.243 60.69L383.768 44.52C386.298 43.64 389.983 42.76 394.823 41.88C399.663 41 404.833 40.56 410.333 40.56ZM565.528 85.605C565.528 77.135 563.823 70.425 560.413 65.475C557.113 60.525 551.833 58.05 544.573 58.05C541.273 58.05 538.138 58.545 535.168 59.535C532.308 60.525 529.998 61.625 528.238 62.835V112.5C529.668 112.83 531.483 113.16 533.683 113.49C535.993 113.71 538.743 113.82 541.933 113.82C549.303 113.82 555.078 111.345 559.258 106.395C563.438 101.335 565.528 94.405 565.528 85.605ZM585.988 85.935C585.988 92.865 584.943 99.135 582.853 104.745C580.873 110.245 577.958 114.975 574.108 118.935C570.368 122.895 565.803 125.92 560.413 128.01C555.023 130.1 548.918 131.145 542.098 131.145C535.498 131.145 529.173 130.65 523.123 129.66C517.183 128.67 512.233 127.57 508.273 126.36V4.25999L528.238 0.959996V45.675C530.548 44.465 533.353 43.365 536.653 42.375C540.063 41.385 543.803 40.89 547.873 40.89C553.923 40.89 559.313 41.99 564.043 44.19C568.883 46.28 572.898 49.305 576.088 53.265C579.278 57.225 581.698 62.01 583.348 67.62C585.108 73.12 585.988 79.225 585.988 85.935ZM636.924 114.975C643.084 114.975 647.759 114.645 650.949 113.985V91.875C649.849 91.545 648.254 91.215 646.164 90.885C644.074 90.555 641.764 90.39 639.234 90.39C637.034 90.39 634.779 90.555 632.469 90.885C630.269 91.215 628.234 91.82 626.364 92.7C624.604 93.58 623.174 94.845 622.074 96.495C620.974 98.035 620.424 100.015 620.424 102.435C620.424 107.165 621.909 110.465 624.879 112.335C627.849 114.095 631.864 114.975 636.924 114.975ZM635.274 40.56C641.874 40.56 647.429 41.385 651.939 43.035C656.449 44.685 660.024 46.995 662.664 49.965C665.414 52.935 667.339 56.565 668.439 60.855C669.649 65.035 670.254 69.655 670.254 74.715V127.02C667.174 127.68 662.499 128.45 656.229 129.33C650.069 130.32 643.084 130.815 635.274 130.815C630.104 130.815 625.374 130.32 621.084 129.33C616.794 128.34 613.109 126.745 610.029 124.545C607.059 122.345 604.694 119.485 602.934 115.965C601.284 112.445 600.459 108.1 600.459 102.93C600.459 97.98 601.394 93.8 603.264 90.39C605.244 86.98 607.884 84.23 611.184 82.14C614.484 79.94 618.279 78.4 622.569 77.52C626.969 76.53 631.534 76.035 636.264 76.035C638.464 76.035 640.774 76.2 643.194 76.53C645.614 76.75 648.199 77.19 650.949 77.85V74.55C650.949 72.24 650.674 70.04 650.124 67.95C649.574 65.86 648.584 64.045 647.154 62.505C645.834 60.855 644.019 59.59 641.709 58.71C639.509 57.83 636.704 57.39 633.294 57.39C628.674 57.39 624.439 57.72 620.589 58.38C616.739 59.04 613.604 59.81 611.184 60.69L608.709 44.52C611.239 43.64 614.924 42.76 619.764 41.88C624.604 41 629.774 40.56 635.274 40.56ZM763.064 42.705C754.154 75.485 743.814 105.185 732.044 131.805C729.844 136.755 727.589 140.99 725.279 144.51C722.969 148.03 720.384 150.945 717.524 153.255C714.664 155.565 711.474 157.215 707.954 158.205C704.434 159.305 700.364 159.855 695.744 159.855C692.664 159.855 689.584 159.525 686.504 158.865C683.534 158.205 681.279 157.49 679.739 156.72L683.369 140.715C687.329 142.255 691.234 143.025 695.084 143.025C700.254 143.025 704.269 141.76 707.129 139.23C710.099 136.81 712.684 133.015 714.884 127.845C708.614 115.745 702.564 102.545 696.734 88.245C691.014 73.945 685.899 58.765 681.389 42.705H702.674C703.774 47.325 705.094 52.33 706.634 57.72C708.284 63.11 710.044 68.61 711.914 74.22C713.784 79.72 715.764 85.22 717.854 90.72C719.944 96.22 722.034 101.335 724.124 106.065C727.644 96.275 730.944 85.88 734.024 74.88C737.104 63.77 739.909 53.045 742.439 42.705H763.064Z" fill="#0E2B94" fill-opacity="0.04"/>
</svg>
