<svg width="58" height="60" viewBox="0 0 58 60" fill="none" xmlns="http://www.w3.org/2000/svg">
<path d="M51.9994 50.0004C55.3116 49.9971 57.9959 47.3129 57.9992 44.0006V13.0019C57.9959 9.68961 55.3116 7.00534 51.9994 7.00209H39.8999C37.1499 0.985206 30.0429 -1.66306 24.026 1.08683C21.4075 2.28365 19.3076 4.38357 18.1107 7.00209H6.00123C2.68898 7.00534 0.00471471 9.68961 0.00146484 13.0019V44.0006C0.00471471 47.3129 2.68898 49.9971 6.00123 50.0004H21.6146L20.2797 54.0002H9.00111C7.3443 54.0002 6.00123 55.3433 6.00123 57.0001C6.00123 58.6569 7.3443 60 9.00111 60H48.9995C50.6563 60 51.9994 58.6569 51.9994 57.0001C51.9994 55.3433 50.6563 54.0002 48.9995 54.0002H37.721L36.386 50.0004H51.9994ZM29.0003 2.00229C34.523 2.00229 38.9999 6.47924 38.9999 12.0019C38.9999 17.5245 34.523 22.0015 29.0003 22.0015C23.4777 22.0015 19.0007 17.5245 19.0007 12.0019C19.0067 6.48186 23.4802 2.00842 29.0003 2.00229ZM6.00123 9.00201H17.4008C16.5282 12.2893 17.1109 15.7929 19.0007 18.6206V25.2804L14.7629 26.6933C14.028 24.6235 11.7545 23.5413 9.6847 24.2762C7.61491 25.011 6.53271 27.2845 7.26755 29.3543C8.0024 31.4241 10.2759 32.5063 12.3457 31.7715C13.6843 31.2963 14.6679 30.143 14.9259 28.7462L20.3167 26.9463C20.7238 26.8107 20.999 26.4304 21.0006 26.0013V20.9205C22.4275 22.2042 24.1424 23.1255 26.0004 23.6064V29.4662L24.2005 30.6662C22.3191 29.3836 19.7542 29.8692 18.4716 31.7505C17.189 33.6319 17.6745 36.1968 19.5559 37.4794C21.4374 38.762 24.0023 38.2764 25.2848 36.3951C26.1386 35.1427 26.2363 33.523 25.5395 32.1771L27.5554 30.8331C27.8335 30.6477 28.0004 30.3354 28.0004 30.0012V23.9504C28.3313 23.9784 28.6623 24.0014 29.0003 24.0014C29.3383 24.0014 29.6693 23.9784 30.0003 23.9504V28.0013C30.0003 28.3355 30.1671 28.6477 30.4453 28.8332L32.4612 30.1772C32.1624 30.739 32.0043 31.3649 32.0002 32.0011C31.9934 34.2168 33.7842 36.0183 35.9999 36.0251C38.2156 36.0318 40.0171 34.241 40.0239 32.0254C40.0306 29.8097 38.2398 28.0081 36.0242 28.0014C35.2334 27.999 34.4597 28.2302 33.8001 28.6662L32.0002 27.4663V23.6064C33.8582 23.1255 35.5732 22.2042 37 20.9205V25.0014C36.9999 25.3804 37.214 25.727 37.553 25.8963L43.0658 28.6522C43.431 30.8253 45.4887 32.2908 47.6617 31.9256C49.8347 31.5604 51.3003 29.5027 50.9351 27.3297C50.5698 25.1566 48.5122 23.6911 46.3391 24.0563C44.9594 24.2882 43.802 25.2257 43.2887 26.5273L38.9999 24.3834V18.6206C40.8913 15.7937 41.4761 12.2899 40.6049 9.00201H51.9994C54.2084 9.00201 55.9992 10.7928 55.9992 13.0019V40.0008H2.00139V13.0019C2.00139 10.7928 3.79219 9.00201 6.00123 9.00201ZM13.0009 28.0013C13.0009 29.1058 12.1056 30.0012 11.001 30.0012C9.89645 30.0012 9.00111 29.1058 9.00111 28.0013C9.00111 26.8967 9.89645 26.0013 11.001 26.0013C12.1056 26.0013 13.0009 26.8968 13.0009 28.0013ZM24.0005 34.001C24.0005 35.1056 23.1052 36.0009 22.0006 36.0009C20.896 36.0009 20.0007 35.1056 20.0007 34.001C20.0007 32.8964 20.896 32.0011 22.0006 32.0011C23.1052 32.0011 24.0005 32.8966 24.0005 34.001ZM36 30.0012C37.1046 30.0012 38 30.8965 38 32.0011C38 33.1057 37.1046 34.001 36 34.001C34.8955 34.001 34.0001 33.1057 34.0001 32.0011C34.0001 30.8965 34.8955 30.0012 36 30.0012ZM44.9997 28.0013C44.9997 26.8967 45.895 26.0013 46.9996 26.0013C48.1042 26.0013 48.9995 26.8967 48.9995 28.0013C48.9995 29.1058 48.1042 30.0012 46.9996 30.0012C45.895 30.0012 44.9997 29.1058 44.9997 28.0013ZM2.00139 44.0006V42.0007H55.9992V44.0006C55.9992 46.2097 54.2084 48.0005 51.9994 48.0005H6.00123C3.79219 48.0005 2.00139 46.2097 2.00139 44.0006ZM49.9995 57.0001C49.9995 57.5523 49.5517 58.0001 48.9995 58.0001H9.00111C8.44888 58.0001 8.00115 57.5523 8.00115 57.0001C8.00115 56.4479 8.44888 56.0001 9.00111 56.0001H48.9995C49.5517 56.0001 49.9995 56.4479 49.9995 57.0001ZM35.6101 54.0002H22.3886L23.7235 50.0004H34.2771L35.6101 54.0002Z" />
<path d="M28.0024 44.0005H30.0024V46.0004H28.0024V44.0005Z" />
<path d="M27.9998 7.41609V14.0018H29.9997V7.41609L32.2927 9.709L33.7066 8.29505L29.7068 4.29521C29.3163 3.90485 28.6833 3.90485 28.2928 4.29521L24.293 8.29505L25.7069 9.709L27.9998 7.41609Z" />
<path d="M24.0004 18.0018H34.0001C34.5523 18.0018 35 17.5541 35 17.0018V14.002H33.0001V16.0019H25.0004V14.002H23.0005V17.0018C23.0005 17.5542 23.4481 18.0018 24.0004 18.0018Z" />
<path d="M5.00098 16.002H14.0006V18.0019H5.00098V16.002Z" />
<path d="M5.00098 20.0015H11.0007V22.0014H5.00098V20.0015Z" />
<path d="M9.00098 12.002H14.0008V14.0019H9.00098V12.002Z" />
<path d="M5.00098 12.002H7.0009V14.0019H5.00098V12.002Z" />
<path d="M5.00098 35.001H7.0009V37.0009H5.00098V35.001Z" />
<path d="M9.00098 35.001H11.0009V37.0009H9.00098V35.001Z" />
<path d="M13.0005 35.001H15.0004V37.0009H13.0005V35.001Z" />
<path d="M50.999 35.001H52.999V37.0009H50.999V35.001Z" />
<path d="M46.9995 35.001H48.9994V37.0009H46.9995V35.001Z" />
<path d="M42.9995 35.001H44.9994V37.0009H42.9995V35.001Z" />
<path d="M43.9995 16.002H52.9992V18.0019H43.9995V16.002Z" />
<path d="M43.9995 20.0015H49.9993V22.0014H43.9995V20.0015Z" />
<path d="M47.9995 12.002H52.9993V14.0019H47.9995V12.002Z" />
<path d="M43.9995 12.002H45.9994V14.0019H43.9995V12.002Z" />
</svg>
