<svg width="57" height="59" viewBox="0 0 57 59" fill="none" xmlns="http://www.w3.org/2000/svg">
<path d="M21.6294 31.4766C17.2883 31.4815 13.7705 34.9993 13.7656 39.3403C13.7656 43.6833 17.2864 47.2041 21.6294 47.2041C25.9724 47.2041 29.4931 43.6833 29.4931 39.3403C29.4931 34.9973 25.9724 31.4766 21.6294 31.4766ZM22.6123 33.531C25.082 33.953 27.0167 35.8876 27.4387 38.3573H22.6123V33.531ZM17.6861 34.9542C18.5177 34.2084 19.5445 33.7147 20.6464 33.531V38.9953L17.2345 43.2604C15.0655 40.842 15.2676 37.1232 17.6861 34.9542ZM21.6294 45.2381C20.6272 45.2385 19.6417 44.9821 18.767 44.493L22.1022 40.3233H27.4387C26.9572 43.1575 24.5042 45.2328 21.6294 45.2381Z" />
<path d="M15.7316 49.1709H13.7656V51.1368H15.7316V49.1709Z" />
<path d="M29.4929 49.1709H17.6973V51.1368H29.4929V49.1709Z" />
<path d="M29.4931 53.1025H13.7656V55.0685H29.4931V53.1025Z" />
<path d="M37.357 49.1709H35.3911V51.1368H37.357V49.1709Z" />
<path d="M51.1184 49.1709H39.3228V51.1368H51.1184V49.1709Z" />
<path d="M51.1186 53.1025H35.3911V55.0685H51.1186V53.1025Z" />
<path d="M39.3229 9.85156H37.3569V11.8175H39.3229V9.85156Z" />
<path d="M51.1183 9.85156H41.2886V11.8175H51.1183V9.85156Z" />
<path d="M51.1185 13.7832H37.3569V15.7491H51.1185V13.7832Z" />
<path d="M39.3229 20.6641H37.3569V22.63H39.3229V20.6641Z" />
<path d="M51.1183 20.6641H41.2886V22.63H51.1183V20.6641Z" />
<path d="M51.1185 24.5957H37.3569V26.5616H51.1185V24.5957Z" />
<path d="M49.1526 37.3744H46.2037V32.4595C46.2037 31.9167 45.7636 31.4766 45.2207 31.4766H41.2889C40.746 31.4766 40.3059 31.9167 40.3059 32.4595V35.4084H37.357C36.8141 35.4084 36.374 35.8486 36.374 36.3914V46.2211C36.374 46.7639 36.8141 47.2041 37.357 47.2041H49.1526C49.6955 47.2041 50.1356 46.7639 50.1356 46.2211V38.3573C50.1356 37.8145 49.6955 37.3744 49.1526 37.3744ZM40.3059 45.2381H38.34V37.3744H40.3059V45.2381ZM44.2378 45.2381H42.2718V33.4425H44.2378V45.2381ZM48.1696 45.2381H46.2037V39.3403H48.1696V45.2381Z" />
<path d="M34.408 8.86816H22.6124C22.0695 8.86816 21.6294 9.30829 21.6294 9.85113V15.749C21.6294 16.2918 22.0695 16.7319 22.6124 16.7319H34.408C34.9508 16.7319 35.391 16.2918 35.391 15.749V9.85113C35.391 9.30829 34.9508 8.86816 34.408 8.86816ZM33.425 14.766H23.5953V10.8341H33.425V14.766Z" />
<path d="M34.408 19.6807H22.6124C22.0695 19.6807 21.6294 20.1208 21.6294 20.6636V26.5614C21.6294 27.1043 22.0695 27.5444 22.6124 27.5444H34.408C34.9508 27.5444 35.391 27.1043 35.391 26.5614V20.6636C35.391 20.1208 34.9508 19.6807 34.408 19.6807ZM33.425 25.5785H23.5953V21.6466H33.425V25.5785Z" />
<path d="M55.0503 3.95377H17.1844C14.4816 -0.116459 8.99095 -1.225 4.9206 1.47792C0.850369 4.18071 -0.258175 9.67145 2.44462 13.7417C3.09633 14.7231 3.9375 15.5645 4.91875 16.2164V29.5111C4.91863 29.7343 4.99457 29.9511 5.13402 30.1254L8.85063 34.7709V58.0172C8.85063 58.56 9.29075 59.0001 9.8336 59.0001H55.0502C55.593 59.0001 56.0331 58.56 56.0331 58.0172V4.93686C56.0333 4.39389 55.5931 3.95377 55.0503 3.95377ZM6.39333 14.8215C3.10567 12.9156 1.98545 8.70544 3.8913 5.41778C5.12014 3.29801 7.38355 1.99164 9.83372 1.98783C13.6339 1.99361 16.7098 5.0789 16.7041 8.87906C16.7004 11.3292 15.3939 13.5926 13.2741 14.8215C12.9702 14.9969 12.783 15.3209 12.7826 15.6717V17.7153H10.8167V12.2245L13.4776 9.56357L12.0877 8.17365L9.83372 10.4276L7.57977 8.17365L6.18985 9.56357L8.85075 12.2245V17.7153H6.88481V15.6717C6.88444 15.3209 6.69719 14.9969 6.39333 14.8215ZM6.88481 21.6472V19.6813H12.7826V21.6472H6.88481ZM12.7826 23.6131V28.528H10.8167V23.6131H12.7826ZM6.88481 23.6131H8.85075V28.528H6.88481V23.6131ZM7.94642 30.4939H11.721L9.83372 32.8531L7.94642 30.4939ZM54.0673 57.0341H10.8167V34.7708L14.5333 30.1253C14.6728 29.951 14.7487 29.7342 14.7486 29.511V16.2163C17.1989 14.5727 18.6723 11.8191 18.6804 8.86861C18.6785 7.8634 18.5039 6.86594 18.1644 5.91971H54.0673V57.0341Z" />
</svg>
