<svg width="60" height="60" viewBox="0 0 60 60" fill="none" xmlns="http://www.w3.org/2000/svg">
<path d="M29 50H31V52H29V50Z" fill="url(#paint0_linear)"/>
<path d="M59 52H58V16C58 13.7909 56.2091 12 54 12H40.93C40.96 11.668 41 11.338 41 11C41 4.92487 36.0751 0 30 0C23.9249 0 19 4.92487 19 11C19 11.338 19.04 11.668 19.07 12H6C3.79087 12 2 13.7909 2 16V52H1C0.44775 52 0 52.4478 0 53V56C0 58.2091 1.79087 60 4 60H56C58.2091 60 60 58.2091 60 56V53C60 52.4478 59.5522 52 59 52ZM30 2C34.9705 2.00338 38.9972 6.0355 38.994 11.006C38.9916 14.58 36.8746 17.814 33.6 19.246C33.2357 19.405 33.0003 19.7646 33 20.162V22H31V14.414L34.707 10.707L33.293 9.293L30 12.586L26.707 9.293L25.293 10.707L29 14.414V22H27V20.162C26.9998 19.7646 26.7642 19.405 26.4 19.246C21.8459 17.2545 19.7685 11.9481 21.76 7.394C23.192 4.11938 26.426 2.00237 30 2ZM44 28V18H52V36H38V38H43V42C43 42.5522 43.4478 43 44 43H49V41H45V38H52V46H22V43H25V41H13V36H11V42C11 42.5522 11.4478 43 12 43H20V46H8V33H16V37C16 37.5522 16.4478 38 17 38H28V42C28 42.5522 28.4478 43 29 43H40V41H35V33H48C48.5522 33 49 32.5522 49 32V21H47V31H39V26H37V31H21V33H33V41H30V37C30 36.4478 29.5522 36 29 36H18V28H22V26H17C16.4478 26 16 26.4478 16 27V31H8V18H11V28H13V23H20V21H13V18H21.521C22.4771 19.1612 23.6611 20.1143 25 20.8V22H23V24H25V27C25 27.5522 25.4478 28 26 28H34C34.5522 28 35 27.5522 35 27V24H37V22H35V20.8C36.3389 20.1143 37.5229 19.1612 38.479 18H42V28H44ZM33 24V26H27V24H33ZM4 16C4 14.8954 4.89538 14 6 14H19.418C19.6225 14.6919 19.8948 15.3617 20.231 16H7C6.44775 16 6 16.4478 6 17V47C6 47.5522 6.44775 48 7 48H53C53.5522 48 54 47.5522 54 47V17C54 16.4478 53.5522 16 53 16H39.769C40.1053 15.3617 40.3775 14.6919 40.582 14H54C55.1046 14 56 14.8954 56 16V52H39C38.7347 52 38.4805 52.1055 38.293 52.293L36.586 54H23.414L21.707 52.293C21.5195 52.1055 21.2652 52 21 52H4V16ZM58 56C58 57.1046 57.1046 58 56 58H4C2.89538 58 2 57.1046 2 56V54H20.586L22.293 55.707C22.4805 55.8945 22.7348 56 23 56H37C37.2653 56 37.5195 55.8945 37.707 55.707L39.414 54H58V56Z" fill="#5FBFCD"/>
<defs>
<linearGradient id="paint0_linear" x1="30" y1="-2.556" x2="30" y2="61.27" gradientUnits="userSpaceOnUse">
<stop stop-color="#FC5C7D"/>
<stop offset="0.129" stop-color="#F35E85"/>
<stop offset="0.343" stop-color="#D9659B"/>
<stop offset="0.616" stop-color="#B070BF"/>
<stop offset="0.934" stop-color="#777FF0"/>
<stop offset="1" stop-color="#6A82FB"/>
</linearGradient>
</defs>
</svg>
