<svg width="30" height="30" viewBox="0 0 30 30" fill="none" xmlns="http://www.w3.org/2000/svg">
<path d="M2.2223 26.6668H6.66667V20.5559H2.2223V26.6668ZM3.33333 21.6669H5.55563V22.7781H3.33333V21.6669ZM3.33333 23.8891H5.55563V25.5558H3.33333V23.8891ZM8.88897 26.6668H13.3333V17.2227H8.88897V26.6668ZM10 18.3337H12.2223V21.1114H10V18.3337ZM10 22.2226H12.2223V25.5558H10V22.2226ZM15.5556 26.6668H20V13.334H15.5556V26.6668ZM16.6667 14.445H18.889V18.8894H16.6667V14.445ZM16.6667 20.0004H18.889V25.5558H16.6667V20.0004ZM22.2223 26.6668H26.6667V10.0008H22.2223V26.6668ZM23.3333 11.1117H25.5556V16.6672H23.3333V11.1117ZM23.3333 17.7782H25.5556V25.5558H23.3333V17.7782ZM0 28.889H28.889V7.77854H30V30H0V28.889ZM18.0093 7.22304H16.6667C16.3597 7.22304 16.1111 6.97425 16.1111 6.66755C16.1111 6.36062 16.3597 6.11205 16.6667 6.11205H19.4445C19.7512 6.11205 20 6.36062 20 6.66755V9.44526C20 9.75196 19.7512 10.0008 19.4445 10.0008C19.1375 10.0008 18.889 9.75196 18.889 9.44526V7.9026C17.1428 10.0394 15.0882 11.9044 12.7927 13.4363C10.7338 14.8084 8.50122 15.9002 6.15395 16.6827L2.95338 17.7493C2.66177 17.8464 2.34704 17.6887 2.24999 17.3971C2.15294 17.1057 2.31065 16.7908 2.60226 16.6937L5.80215 15.6271C8.0558 14.8764 10.1994 13.8286 12.1761 12.5118C14.3714 11.0472 16.3373 9.2649 18.0093 7.22304ZM27.7283 3.90769C28.0453 2.09426 26.8322 0.367344 25.0187 0.0503429C23.2052 -0.266659 21.4782 0.946416 21.1612 2.75985C20.8441 4.57328 22.0575 6.30019 23.8708 6.61719C24.7417 6.7694 25.6371 6.56936 26.3606 6.06147C27.086 5.55518 27.5786 4.7795 27.7283 3.90769ZM26.6339 3.71657C26.4229 4.92553 25.2718 5.73463 24.0626 5.5236C22.8536 5.31257 22.0447 4.16129 22.2557 2.95234C22.4668 1.74338 23.6178 0.934514 24.8268 1.14531C25.4073 1.24671 25.9239 1.57447 26.2629 2.05649C26.6033 2.53806 26.7369 3.1359 26.6339 3.71657ZM25.0001 2.77884V3.88984C25.0001 4.19677 24.7513 4.44533 24.4444 4.44533C24.1377 4.44533 23.8889 4.19677 23.8889 3.88984V2.77884C23.8889 2.47191 24.1377 2.22335 24.4444 2.22335C24.7513 2.22335 25.0001 2.47191 25.0001 2.77884Z"/>
</svg>
