<svg width="35" height="30" viewBox="0 0 35 30" fill="none" xmlns="http://www.w3.org/2000/svg">
<path d="M33.25 15H32.6667V2.88462C32.6648 1.29231 31.36 0.001875 29.75 0H5.25C3.64 0.001875 2.33523 1.29231 2.33333 2.88462V11.5385H1.75C0.78349 11.5385 0 12.3133 0 13.2692V28.2692C0 29.2251 0.78349 30 1.75 30H23.9167C24.2388 30 24.5 29.7417 24.5 29.4231C24.4981 27.8308 23.1933 26.5403 21.5833 26.5385H19.8333V23.0769H26.8333V28.2692C26.8333 29.2251 27.6168 30 28.5833 30H33.25C34.2165 30 35 29.2251 35 28.2692V16.7308C35 15.7749 34.2165 15 33.25 15ZM12.8333 28.2692C12.8333 28.5878 12.5721 28.8462 12.25 28.8462H1.75C1.42785 28.8462 1.16667 28.5878 1.16667 28.2692V27.6923H12.8333V28.2692ZM12.8333 26.5385H1.16667V13.2692C1.16667 12.9506 1.42785 12.6923 1.75 12.6923H12.25C12.5721 12.6923 12.8333 12.9506 12.8333 13.2692V26.5385ZM21.5833 27.6923C22.3247 27.6932 22.9854 28.1551 23.2336 28.8462H13.8927C13.9618 28.6614 13.998 28.4662 14 28.2692V27.6923H21.5833ZM14 26.5385V23.0769H15.1667V26.5385H14ZM16.3333 26.5385V23.0769H18.6667V26.5385H16.3333ZM26.8333 21.9231H14V18.4615H26.8333V21.9231ZM26.8333 16.7308V17.3077H14V13.2692C13.998 12.9955 13.9296 12.7262 13.8005 12.484C13.8092 12.476 13.8209 12.4737 13.8291 12.465L19.6041 6.75346C19.8279 6.52428 19.8215 6.15901 19.5898 5.93769C19.3638 5.72178 19.0054 5.72178 18.7792 5.93769L13.0042 11.6492C12.9902 11.6637 12.9844 11.6821 12.9722 11.6971C12.7458 11.5933 12.4994 11.5392 12.25 11.5385H3.5V2.88462C3.5 1.92873 4.28349 1.15385 5.25 1.15385H29.75C30.7165 1.15385 31.5 1.92873 31.5 2.88462V15H28.5833C27.6168 15 26.8333 15.7749 26.8333 16.7308ZM33.8333 28.2692C33.8333 28.5878 33.5721 28.8462 33.25 28.8462H28.5833C28.2612 28.8462 28 28.5878 28 28.2692V27.6923H33.8333V28.2692ZM33.8333 26.5385H28V16.7308C28 16.4122 28.2612 16.1538 28.5833 16.1538H33.25C33.5721 16.1538 33.8333 16.4122 33.8333 16.7308V26.5385Z"/>
<path d="M6.96584 19.1873C6.70606 18.9376 6.28494 18.9376 6.02515 19.1873L3.20309 21.9004C2.93881 22.1458 2.93149 22.5507 3.18679 22.8047C3.44209 23.0588 3.8632 23.0659 4.12748 22.8204C4.13305 22.8153 4.13846 22.81 4.14378 22.8047L6.96584 20.0916C7.08459 19.8938 6.84593 19.5176 6.96584 19.1873Z"/>
<path d="M10.8044 19.1799C10.5561 18.94 10.1624 18.94 9.91398 19.1799L7.19563 21.8982C6.94106 22.1441 6.93401 22.5498 7.17993 22.8044C7.42576 23.0589 7.83148 23.066 8.08605 22.8201C8.09141 22.8149 8.09662 22.8097 8.10175 22.8044L10.8201 20.086C11.0659 19.8314 11.059 19.4257 10.8044 19.1799Z" />
<path d="M22.8461 7.16511C22.6507 6.94496 22.3409 6.94496 22.1455 7.16511L17.1539 12.9887C16.9536 13.2143 16.9481 13.5867 17.1415 13.8204C17.3349 14.0541 17.6542 14.0606 17.8544 13.8349C17.8587 13.8302 17.8628 13.8253 17.8669 13.8204L22.8584 7.99688C23.0519 7.7632 23.0464 7.39077 22.8461 7.16511Z"/>
<path d="M32.7471 20.2326C32.426 19.9225 31.9169 19.9225 31.5959 20.2326L29.2529 22.5756C28.9238 22.8935 28.9147 23.418 29.2326 23.7471C29.5506 24.0762 30.075 24.0853 30.4041 23.7674C30.4109 23.7608 30.4178 23.7539 30.4244 23.7471L32.7674 21.4041C33.0853 21.075 33.0762 20.5506 32.7471 20.2326Z" />
<path d="M17.5013 20H17.4963C17.2208 20.0014 16.9986 20.2264 17 20.5025C17.0014 20.7786 17.2258 21.0014 17.5013 21C17.7767 21 18 20.7761 18 20.5C18 20.2239 17.7767 20 17.5013 20Z" />
<path d="M18.5 3H16.5C16.2239 3 16 3.22387 16 3.5C16 3.77613 16.2239 4 16.5 4H18.5C18.7761 4 19 3.77613 19 3.5C19 3.22387 18.7761 3 18.5 3Z"/>
</svg>
