<svg width="61" height="61" viewBox="0 0 61 61" fill="none" xmlns="http://www.w3.org/2000/svg">
<path d="M60.9347 58.4879L41.0096 1.74759L41.0086 1.74795C40.9733 1.64751 40.9258 1.55089 40.8627 1.46177C40.6463 1.15618 40.2948 0.974609 39.9205 0.974609H21.079C20.5885 0.974609 20.1517 1.28426 19.9894 1.74688L0.0652648 58.4874C-0.0588795 58.8407 -0.00383667 59.2322 0.212641 59.538C0.42912 59.8437 0.780584 60.0251 1.15492 60.0251H16.0958C18.9185 60.0251 21.4433 58.2358 22.3782 55.5725L30.4999 32.4436L38.6206 55.5728C39.5555 58.2361 42.0807 60.0256 44.904 60.0256H59.8449C60.2195 60.0256 60.5707 59.844 60.7872 59.5386C61.004 59.233 61.0587 58.8411 60.9347 58.4879ZM20.1988 54.8072C19.5881 56.5466 17.9393 57.7151 16.0957 57.7151H2.78476L21.8976 3.28486H38.2906L20.1988 54.8072ZM44.904 57.7156C43.0599 57.7156 41.4108 56.5471 40.8003 54.8076L31.724 28.9576L39.92 5.6168L58.2151 57.7156H44.904Z" />
</svg>
