<svg width="30" height="30" viewBox="0 0 30 30" fill="none" xmlns="http://www.w3.org/2000/svg">
<path d="M29.5161 0H0.483871C0.216183 0 0 0.216183 0 0.483871V29.5161C0 29.7838 0.216183 30 0.483871 30H29.5161C29.7838 30 30 29.7838 30 29.5161V0.483871C30 0.216183 29.7838 0 29.5161 0ZM29.0323 0.967742V5.80645H0.967742V0.967742H29.0323ZM0.967742 29.0323V6.77419H29.0323V29.0323H0.967742Z" />
<path d="M3.5 5C4.3269 5 5 4.3269 5 3.5C5 2.6731 4.3269 2 3.5 2C2.6731 2 2 2.6731 2 3.5C2 4.3269 2.6731 5 3.5 5ZM3.5 3C3.77588 3 4 3.22412 4 3.5C4 3.77588 3.77588 4 3.5 4C3.22412 4 3 3.77588 3 3.5C3 3.22412 3.22412 3 3.5 3Z" />
<path d="M7.5 5C8.3269 5 9 4.3269 9 3.5C9 2.6731 8.3269 2 7.5 2C6.6731 2 6 2.6731 6 3.5C6 4.3269 6.6731 5 7.5 5ZM7.5 3C7.77588 3 8 3.22412 8 3.5C8 3.77588 7.77588 4 7.5 4C7.22412 4 7 3.77588 7 3.5C7 3.22412 7.22412 3 7.5 3Z"/>
<path d="M11.5 5C12.3269 5 13 4.3269 13 3.5C13 2.6731 12.3269 2 11.5 2C10.6731 2 10 2.6731 10 3.5C10 4.3269 10.6731 5 11.5 5ZM11.5 3C11.7759 3 12 3.22412 12 3.5C12 3.77588 11.7759 4 11.5 4C11.2241 4 11 3.77588 11 3.5C11 3.22412 11.2241 3 11.5 3Z" />
<path d="M14.5357 16.0357H8.96429V10.4643C8.96429 10.2074 8.75685 10 8.5 10C4.91561 10 2 12.9156 2 16.5C2 20.0844 4.91561 23 8.5 23C12.0844 23 15 20.0844 15 16.5C15 16.2431 14.7926 16.0357 14.5357 16.0357ZM8.03571 15.3792L4.90791 12.2514C5.76824 11.5228 6.84802 11.046 8.03571 10.9476V15.3792ZM8.5 22.0714C5.42773 22.0714 2.92857 19.5723 2.92857 16.5C2.92857 15.1307 3.42958 13.8791 4.25183 12.9084L8.17128 16.8278C8.25539 16.9119 8.37146 16.9643 8.5 16.9643H14.0524C13.8157 19.8196 11.4156 22.0714 8.5 22.0714Z" />
<path d="M11.4 8C11.1787 8 11 8.2085 11 8.46667V14.5333C11 14.7915 11.1787 15 11.4 15H16.6C16.8213 15 17 14.7915 17 14.5333C17 10.9306 14.4881 8 11.4 8ZM11.8 14.0667V8.95247C14.1279 9.17738 15.9908 11.3507 16.1836 14.0667H11.8Z" />
<path d="M27 8H28V9H27V8Z" />
<path d="M18 8H26V9H18V8Z" />
<path d="M27 10H28V11H27V10Z" />
<path d="M18 10H26V11H18V10Z" />
<path d="M27 12H28V13H27V12Z" />
<path d="M18 12H26V13H18V12Z" />
<path d="M27 14H28V15H27V14Z" />
<path d="M18 14H26V15H18V14Z" />
<path d="M27 15H28V16H27V15Z" />
<path d="M18 15H26V16H18V15Z" />
<path d="M19.5 21H17.5C17.2234 21 17 21.2234 17 21.5V27.5C17 27.7766 17.2234 28 17.5 28H19.5C19.7766 28 20 27.7766 20 27.5V21.5C20 21.2234 19.7766 21 19.5 21ZM19 27H18V22H19V27Z" />
<path d="M15.6667 23H14.3333C14.1489 23 14 23.2234 14 23.5V27.5C14 27.7766 14.1489 28 14.3333 28H15.6667C15.8511 28 16 27.7766 16 27.5V23.5C16 23.2234 15.8511 23 15.6667 23ZM15.3333 27H14.6667V24H15.3333V27Z" />
<path d="M23.5 19H21.5C21.2234 19 21 19.2234 21 19.5V27.5C21 27.7766 21.2234 28 21.5 28H23.5C23.7766 28 24 27.7766 24 27.5V19.5C24 19.2234 23.7766 19 23.5 19ZM23 27H22V20H23V27Z" />
<path d="M27.5 17H25.5C25.2234 17 25 17.2234 25 17.5V27.5C25 27.7766 25.2234 28 25.5 28H27.5C27.7766 28 28 27.7766 28 27.5V17.5C28 17.2234 27.7766 17 27.5 17ZM27 27H26V18H27V27Z" />
</svg>
