<svg width="60" height="60" viewBox="0 0 60 60" fill="none" xmlns="http://www.w3.org/2000/svg">
<path d="M56 0H4C1.79087 0 0 1.79087 0 4V56C0 58.2091 1.79087 60 4 60H56C58.2091 60 60 58.2091 60 56V4C60 1.79087 58.2091 0 56 0ZM58 56C58 57.1046 57.1046 58 56 58H4C2.89538 58 2 57.1046 2 56V10H58V56ZM58 8H2V4C2 2.89538 2.89538 2 4 2H56C57.1046 2 58 2.89538 58 4V8Z"/>
<path d="M56 4H54V6H56V4Z" />
<path d="M52 4H50V6H52V4Z" />
<path d="M48 4H46V6H48V4Z" />
<path d="M54 13H6C5.44775 13 5 13.4478 5 14V20C5 20.5523 5.44775 21 6 21H54C54.5523 21 55 20.5523 55 20V14C55 13.4478 54.5523 13 54 13ZM53 19H7V15H53V19Z" />
<path d="M55 50H5V52H55V50Z" />
<path d="M55 45H5V47H55V45Z" />
<path d="M54 25H45C44.4478 25 44 25.4477 44 26V40C44 40.5522 44.4478 41 45 41H54C54.5523 41 55 40.5522 55 40V26C55 25.4477 54.5523 25 54 25ZM52.168 27L49.5 31.151L46.832 27H52.168ZM46 29.41L48.311 33L46 36.6V29.41ZM46.832 39L49.5 34.849L52.168 39H46.832ZM53 36.6L50.689 33L53 29.405V36.6Z" />
<path d="M41 25H6C5.44775 25 5 25.4477 5 26V40C5 40.5522 5.44775 41 6 41H41C41.5523 41 42 40.5522 42 40V26C42 25.4477 41.5523 25 41 25ZM40 39H7V27H40V39Z" />
<path d="M33 30H10V32H33V30Z" />
<path d="M37 34H10V36H37V34Z" />
<path d="M37 30H35V32H37V30Z" />
</svg>
