<svg width="61" height="61" viewBox="0 0 61 61" fill="none" xmlns="http://www.w3.org/2000/svg">
<path d="M4.06592 12.1943H6.09898V14.2274H4.06592V12.1943Z" />
<path d="M8.13232 12.1934H10.1654V14.2264H8.13232V12.1934Z" />
<path d="M12.1982 12.1934H14.2313V14.2264H12.1982V12.1934Z" />
<path d="M56.3157 10.2689L57.1127 5.03577C57.197 4.48074 56.8156 3.96231 56.2606 3.87794C56.1593 3.86257 56.0561 3.86257 55.9548 3.87794L50.7187 4.67185L47.5797 0.402429C47.2115 -0.050053 46.5464 -0.118542 46.0939 0.249569C46.0378 0.295186 45.9866 0.346393 45.941 0.402429L42.802 4.67185L37.5689 3.87489C37.0139 3.79052 36.4954 4.17197 36.4111 4.727C36.3957 4.82827 36.3957 4.93145 36.4111 5.03272L36.8817 8.12805H4.06612C1.82048 8.12805 0 9.94853 0 12.1942V56.9214C0 59.1671 1.82048 60.9876 4.06612 60.9876H52.8595C55.1052 60.9876 56.9256 59.1671 56.9256 56.9214V24.1607C57.0812 23.9468 57.1472 23.6806 57.1096 23.4187L56.3157 18.1856L60.5851 15.0465C61.0376 14.7143 61.1351 14.078 60.8028 13.6256C60.7417 13.5423 60.6684 13.469 60.5851 13.4079L56.3157 10.2689ZM4.06612 10.1611H37.1907L37.208 10.2689L32.9386 13.4079C32.4861 13.7402 32.3886 14.3764 32.7209 14.8289C32.782 14.9121 32.8554 14.9854 32.9386 15.0465L34.5925 16.2603H2.03306V12.1942C2.03306 11.0714 2.94323 10.1611 4.06612 10.1611ZM52.8595 58.9545H4.06612C2.94323 58.9545 2.03306 58.0443 2.03306 56.9214V18.2933H37.1907L36.4111 23.4187C36.3267 23.9737 36.7081 24.4921 37.2632 24.5765C37.3644 24.5919 37.4676 24.5919 37.5689 24.5765L40.6612 24.1059V35.5743C40.6609 36.1357 41.1159 36.591 41.6773 36.5912C41.9084 36.5914 42.1326 36.5127 42.313 36.3682L46.7603 32.8094L51.2077 36.3672C51.6459 36.7181 52.2857 36.6473 52.6365 36.209C52.7807 36.0288 52.8594 35.8051 52.8595 35.5743V24.1059L54.8926 24.4108V56.9214C54.8926 58.0443 53.9824 58.9545 52.8595 58.9545ZM42.6942 23.7968L42.802 23.7795L45.941 28.049C46.2733 28.5014 46.9095 28.5989 47.362 28.2666C47.4452 28.2055 47.5185 28.1322 47.5797 28.049L50.7187 23.7795L50.8265 23.7968V33.4539L47.3957 30.7092C47.0243 30.4119 46.4964 30.4119 46.125 30.7092L42.6942 33.4589V23.7968ZM54.613 16.9119C54.3072 17.1349 54.1504 17.5093 54.2064 17.8837L54.8926 22.3595L50.4198 21.6784C50.0455 21.6223 49.671 21.7791 49.448 22.085L46.7603 25.7262L44.0757 22.0799C43.8855 21.8208 43.5838 21.6671 43.2625 21.6652C43.211 21.6652 43.1597 21.6692 43.109 21.6774L38.6281 22.3595L39.3092 17.8867C39.3652 17.5124 39.2084 17.1379 38.9026 16.9149L35.2614 14.2272L38.9077 11.5426C39.2135 11.3196 39.3703 10.9451 39.3143 10.5708L38.6281 6.09499L43.1008 6.77607C43.4752 6.8321 43.8496 6.6753 44.0726 6.36945L46.7603 2.72825L49.445 6.37454C49.668 6.68039 50.0425 6.83718 50.4168 6.78115L54.8926 6.09499L54.2115 10.5677C54.1555 10.9421 54.3123 11.3165 54.6181 11.5395L58.2593 14.2272L54.613 16.9119Z" />
<path d="M45.7437 13.2109H47.7767V15.244H45.7437V13.2109Z" />
<path d="M46.7603 8.12793C43.3918 8.12793 40.6611 10.8586 40.6611 14.2271C40.6611 17.5956 43.3918 20.3263 46.7603 20.3263C50.1288 20.3263 52.8595 17.5956 52.8595 14.2271C52.8562 10.86 50.1274 8.13136 46.7603 8.12793ZM46.7603 18.2932C44.5147 18.2932 42.6942 16.4727 42.6942 14.2271C42.6942 11.9815 44.5147 10.161 46.7603 10.161C49.0059 10.161 50.8264 11.9815 50.8264 14.2271C50.8264 16.4727 49.0059 18.2932 46.7603 18.2932Z" />
<path d="M34.5619 32.5243C34.5619 31.963 34.1067 31.5078 33.5453 31.5078H28.4627C27.9013 31.5078 27.4462 31.963 27.4462 32.5243V53.8715H24.3966V37.607C24.3966 37.0456 23.9414 36.5905 23.38 36.5905H18.2974C17.736 36.5905 17.2809 37.0456 17.2809 37.607V53.8715H14.2313V42.6896C14.2313 42.1283 13.7761 41.6731 13.2148 41.6731H8.13211C7.57073 41.6731 7.11558 42.1283 7.11558 42.6896V53.8715H5.08252V55.9045H36.5949V53.8715H34.5619V32.5243ZM9.14864 53.8715V43.7062H12.1982V53.8715H9.14864ZM19.3139 53.8715V38.6235H22.3635V53.8715H19.3139ZM29.4792 53.8715V33.5409H32.5288V53.8715H29.4792Z" />
<path d="M9.14893 21.3428H11.182V23.3758H9.14893V21.3428Z" />
<path d="M13.2148 21.3428H33.5454V23.3758H13.2148V21.3428Z" />
<path d="M5.08252 25.4092H33.5453V27.4422H5.08252V25.4092Z" />
<path d="M5.08252 29.4746H24.3966V31.5077H5.08252V29.4746Z" />
<path d="M39.6445 41.6729H41.6776V43.7059H39.6445V41.6729Z" />
<path d="M43.7104 41.6729H51.8427V43.7059H43.7104V41.6729Z" />
<path d="M39.6445 45.7393H51.8429V47.7723H39.6445V45.7393Z" />
<path d="M39.6445 49.8057H51.8429V51.8387H39.6445V49.8057Z" />
<path d="M39.6445 53.8721H51.8429V55.9051H39.6445V53.8721Z" />
</svg>
