<svg width="60" height="58" viewBox="0 0 60 58" fill="none" xmlns="http://www.w3.org/2000/svg">
<path d="M24 23.5H26C26 21.3 27.8 19.5 30 19.5V17.5C26.7 17.5 24 20.2 24 23.5Z" />
<path d="M59 49.5H58V13.5C58 11.3 56.2 9.5 54 9.5H47V4.5C47 2.3 45.2 0.5 43 0.5H17C14.8 0.5 13 2.3 13 4.5V9.5H6C3.8 9.5 2 11.3 2 13.5V49.5H1C0.4 49.5 0 49.9 0 50.5V53.5C0 55.7 1.8 57.5 4 57.5H56C58.2 57.5 60 55.7 60 53.5V50.5C60 49.9 59.6 49.5 59 49.5ZM47 16.5H51V43.5H47V16.5ZM15 4.5C15 3.4 15.9 2.5 17 2.5H43C44.1 2.5 45 3.4 45 4.5V8.5H15V4.5ZM15 10.5H45V43.5H33V37.5C33 36.9 32.6 36.5 32 36.5H31V33.4C36.1 32.9 40 28.6 40 23.5C40 18 35.5 13.5 30 13.5C24.5 13.5 20 18 20 23.5C20 28.7 23.9 32.9 29 33.4V36.5H28C27.4 36.5 27 36.9 27 37.5V43.5H15V10.5ZM31 38.5V43.5H29V38.5H31ZM30 31.5C25.6 31.5 22 27.9 22 23.5C22 19.1 25.6 15.5 30 15.5C34.4 15.5 38 19.1 38 23.5C38 27.9 34.4 31.5 30 31.5ZM4 13.5C4 12.4 4.9 11.5 6 11.5H13V14.5H8C7.4 14.5 7 14.9 7 15.5V44.5C7 45.1 7.4 45.5 8 45.5H52C52.6 45.5 53 45.1 53 44.5V15.5C53 14.9 52.6 14.5 52 14.5H47V11.5H54C55.1 11.5 56 12.4 56 13.5V49.5H39C38.7 49.5 38.5 49.6 38.3 49.8L36.6 51.5H23.4L21.7 49.8C21.5 49.6 21.3 49.5 21 49.5H4V13.5ZM13 16.5V43.5H9V16.5H13ZM58 53.5C58 54.6 57.1 55.5 56 55.5H4C2.9 55.5 2 54.6 2 53.5V51.5H20.6L22.3 53.2C22.5 53.4 22.7 53.5 23 53.5H37C37.3 53.5 37.5 53.4 37.7 53.2L39.4 51.5H58V53.5Z" />
<path d="M29 47.5H31V49.5H29V47.5Z" />
<path d="M17 4.5H19V6.5H17V4.5Z" />
<path d="M21 4.5H23V6.5H21V4.5Z" />
<path d="M25 4.5H27V6.5H25V4.5Z" />
<path d="M31.6997 19.8997C32.1997 20.0997 32.5997 20.4997 32.9997 20.8997L34.4997 19.5997C33.9997 18.9997 33.2997 18.4997 32.5997 18.1997L31.6997 19.8997Z" />
</svg>
