<svg width="60" height="60" viewBox="0 0 60 60" fill="none" xmlns="http://www.w3.org/2000/svg">
<path d="M47 10H45V12H47V10Z" />
<path d="M43 10H41V12H43V10Z" />
<path d="M39 10H37V12H39V10Z" />
<path d="M15 10H13V12H15V10Z" />
<path d="M32 55H28C27.4477 55 27 55.4477 27 56C27 56.5522 27.4477 57 28 57H32C32.5523 57 33 56.5522 33 56C33.0001 55.4477 32.5523 55 32 55Z" />
<path d="M60 24C59.9915 18.7008 56.21 14.1592 51 13.191V5C50.9967 2.23998 48.76 0.00332359 46 0H14C11.2399 0.00332359 9.0033 2.23998 8.99997 5V19H0.999977C0.447717 19 0 19.4477 0 20V40C0 40.5523 0.447717 41 0.999977 41H8.99997V55C9.0033 57.76 11.2399 59.9967 14 60H46C48.76 59.9967 50.9966 57.76 51 55V50.816C52.1943 50.3937 52.9947 49.2668 53 48V40C52.9973 39.1515 52.6337 38.3442 52 37.78V34.574C56.7274 33.2293 59.9916 28.9149 60 24ZM58 24C58 28.9706 53.9705 33 49 33C44.0295 33 40 28.9706 40 24C40 19.0294 44.0295 15 49 15C53.9683 15.0055 57.9945 19.0317 58 24ZM14 2.00001H46C47.6568 2.00001 49 3.34317 49 5V5.99998H11V5C11 3.34317 12.3431 2.00001 14 2.00001ZM2.00001 21H34V39H2.00001V21ZM35 41C35.5523 41 36 40.5523 36 40V20C36 19.4478 35.5523 19 35 19H11V8H49V13C42.9276 12.9977 38.0031 17.9184 38.0008 23.9908C37.9989 28.911 41.266 33.2334 46 34.574V37.78C45.3663 38.3442 45.0027 39.1515 45 40V48C45 49.6568 46.3432 51 48 51H49V51.9999H11V41H35ZM46 58H14C12.3431 58 11 56.6568 11 55V54H49V55C49 56.6569 47.6569 58 46 58ZM51 48C51 48.5523 50.5523 49 50 49H48C47.4478 49 47.0001 48.5523 47.0001 48V40C47.0001 39.4477 47.4478 39 48 39H50C50.5523 39 51 39.4477 51 40V48ZM50 35V37H48V35H50Z" />
<path d="M41 24H43C43.0033 20.6876 45.6877 18.0033 49 18V16C44.5838 16.005 41.005 19.5838 41 24Z" />
<path d="M8.00003 23H4V25H8.00003V23Z" />
<path d="M32 23H10V25H32V23Z" />
<path d="M8.00003 27H4V29H8.00003V27Z" />
<path d="M32 27H10V29H32V27Z" />
<path d="M8.00003 31H4V33H8.00003V31Z" />
<path d="M32 31H10V33H32V31Z" />
<path d="M8.00003 34.9995H4V36.9995H8.00003V34.9995Z" />
<path d="M32 34.9995H10V36.9995H32V34.9995Z" />
</svg>
