<svg width="58" height="60" viewBox="0 0 58 60" fill="none" xmlns="http://www.w3.org/2000/svg">
<path d="M26.5029 4H28.5029V6H26.5029V4Z" />
<path d="M30.5029 4H32.5029V6H30.5029V4Z" />
<path d="M33.5029 15H35.5029V17H33.5029V15Z" />
<path d="M20.5029 35H22.5029V37H20.5029V35Z" />
<path d="M28.5029 54H30.5029V56H28.5029V54Z" />
<path d="M14.503 60H44.5031C46.7122 60 48.5031 58.2091 48.5031 56V45H56.5031C57.0553 45 57.5031 44.5522 57.5031 44V28C57.5031 27.4478 57.0553 27 56.5031 27H48.5031V4C48.5031 1.79087 46.7122 0 44.5031 0H14.503C12.2939 0 10.503 1.79087 10.503 4V15H6.50305C5.39842 15 4.50305 15.8954 4.50305 17V17.1C1.7968 17.6495 0.0485481 20.2888 0.598048 22.995C0.997548 24.9626 2.53542 26.5005 4.50305 26.9V27C4.50305 28.1046 5.39842 29 6.50305 29V39C6.50305 40.6569 7.84617 42 9.50305 42C9.84455 41.9966 10.1828 41.9345 10.503 41.816V56C10.503 58.2091 12.2939 60 14.503 60ZM12.503 27.17V16.83L26.5031 14.2V29.8L12.503 27.17ZM14.503 29.58V31H12.503V29.2L14.503 29.58ZM44.5031 58H14.503C13.3984 58 12.503 57.1046 12.503 56V52H46.5031V56C46.5031 57.1046 45.6077 58 44.5031 58ZM55.5031 43H37.5031V29H55.5031V43ZM36.5031 27C35.9508 27 35.5031 27.4478 35.5031 28V44C35.5031 44.5522 35.9508 45 36.5031 45H46.5031V50H12.503V33H15.503C16.0553 33 16.503 32.5522 16.503 32V29.955L27.3191 31.983C27.3798 31.9941 27.4413 31.9999 27.5031 32C28.0553 32 28.5031 31.5522 28.5031 31V13C28.5031 12.4478 28.0554 12 27.5032 11.9999C27.4414 11.9999 27.3798 12.0056 27.3191 12.017L12.503 14.8V10H46.5031V27H36.5031ZM14.503 2H44.5031C45.6077 2 46.5031 2.89538 46.5031 4V8H12.503V4C12.503 2.89538 13.3984 2 14.503 2ZM6.50305 17H10.503V27H6.50305V17ZM2.50305 22C2.50455 20.729 3.3053 19.5964 4.50305 19.171V24.829C3.3053 24.4036 2.50455 23.271 2.50305 22ZM10.503 29V35H8.50305V29H10.503ZM9.50305 40C8.9508 40 8.50305 39.5522 8.50305 39V37H10.503V39C10.503 39.5522 10.0553 40 9.50305 40Z" />
<path d="M41.9419 40.8281C42.2171 41.0143 42.5667 41.0518 42.8749 40.9281L52.8749 36.9281C53.3881 36.7237 53.6383 36.1421 53.4338 35.629C53.3322 35.3738 53.1301 35.1717 52.8749 35.0701L42.8749 31.0701C42.3623 30.8646 41.7802 31.1137 41.5747 31.6263C41.5271 31.7452 41.5027 31.8721 41.5029 32.0001V40.0001C41.5028 40.3318 41.6673 40.642 41.9419 40.8281ZM43.5029 33.4771L49.8109 36.0001L43.5029 38.5231V33.4771Z" />
<path d="M16.5029 39H32.5029V41H16.5029V39Z" />
<path d="M16.5029 43H29.5029V45H16.5029V43Z" />
<path d="M24.5029 35H32.5029V37H24.5029V35Z" />
<path d="M31.5029 19H43.5029V21H31.5029V19Z" />
<path d="M31.5029 23H40.5029V25H31.5029V23Z" />
<path d="M37.5029 15H43.5029V17H37.5029V15Z" />
</svg>
