<svg width="28" height="28" viewBox="0 0 28 28" fill="none" xmlns="http://www.w3.org/2000/svg">
<path fill-rule="evenodd" clip-rule="evenodd" d="M23.9775 0H9.73544C9.72925 0 9.72327 0.000640872 9.71707 0.000854492C9.71088 0.00106811 9.70468 0.00149536 9.69849 0.0019226C9.67542 0.00341797 9.65234 0.00598145 9.6297 0.0104675C9.62927 0.0104675 9.62885 0.0104675 9.62842 0.0106811C9.60535 0.0151672 9.58292 0.0217896 9.5607 0.0292663C9.55493 0.0311889 9.54916 0.0333252 9.54361 0.0354615C9.52267 0.0433655 9.50195 0.052124 9.48209 0.0623779C9.4808 0.0630188 9.47974 0.063446 9.47845 0.0643005C9.45752 0.0754089 9.43765 0.0882263 9.41843 0.101898C9.41351 0.10553 9.40881 0.108948 9.4039 0.112579C9.38467 0.127319 9.36609 0.142914 9.34879 0.160217L3.66022 5.84857C3.64291 5.86588 3.62753 5.88446 3.61279 5.90369C3.60916 5.9086 3.60553 5.91351 3.6019 5.91843C3.58823 5.93787 3.57541 5.95752 3.5643 5.97845C3.56345 5.97974 3.56302 5.98102 3.56238 5.9823C3.55191 6.00217 3.54315 6.02267 3.53546 6.04361C3.53333 6.04916 3.53119 6.05493 3.52927 6.0607C3.52179 6.08292 3.51517 6.10535 3.51068 6.12842C3.51047 6.12885 3.51047 6.12927 3.51047 6.1297C3.50598 6.15234 3.50342 6.1752 3.50192 6.19849C3.5015 6.20468 3.50107 6.21066 3.50085 6.21707C3.50064 6.22305 3.5 6.22925 3.5 6.23544V27.4531C3.5 27.7552 3.74481 28 4.04688 28H23.9773C24.2793 28 24.5241 27.7552 24.5241 27.4531V0.546875C24.5244 0.244812 24.2795 0 23.9775 0ZM9.18857 1.86728V5.68857H5.36728L9.18857 1.86728ZM23.4306 26.9062H4.59375V6.78232H9.73544C10.0375 6.78232 10.2823 6.53729 10.2823 6.23544V1.09375H23.4306V26.9062Z" />
<path fill-rule="evenodd" clip-rule="evenodd" d="M17.7061 22.1066C17.7083 22.1284 17.7119 22.1497 17.7166 22.1709C17.7175 22.1751 17.719 22.1796 17.72 22.1839C17.7241 22.201 17.7292 22.2179 17.735 22.2343C17.7367 22.2392 17.7384 22.2439 17.7403 22.2488C17.7474 22.2674 17.7555 22.2854 17.7645 22.3029C17.7653 22.3044 17.7657 22.3059 17.7664 22.3074L17.7681 22.3106C17.7687 22.3119 17.7694 22.3129 17.77 22.314L19.3352 25.2816C19.4299 25.4611 19.6161 25.5735 19.8189 25.5735C20.0218 25.5735 20.2081 25.4611 20.3027 25.2816L21.8682 22.3138C21.8686 22.3129 21.869 22.3121 21.8694 22.3112L21.8716 22.3074C21.8724 22.3057 21.8731 22.304 21.8739 22.3022C21.8827 22.2849 21.8906 22.2672 21.8976 22.2491C21.8996 22.2441 21.9013 22.239 21.9032 22.2341C21.909 22.2179 21.9139 22.2012 21.9182 22.1841C21.9192 22.1796 21.9205 22.1751 21.9216 22.1707C21.9263 22.1497 21.9299 22.1284 21.932 22.1066C21.9323 22.1051 21.9323 22.1034 21.9323 22.1019C21.9337 22.0854 21.9348 22.069 21.9348 22.0521V17.5878C21.9348 17.2857 21.69 17.0409 21.3879 17.0409C21.0859 17.0409 20.8411 17.2857 20.8411 17.5878V21.5052H18.7971V9.29517H20.8411V13.2128C20.8411 13.5149 21.0859 13.7597 21.3879 13.7597C21.69 13.7597 21.9348 13.5149 21.9348 13.2128V5.94043C21.9348 5.63858 21.69 5.39355 21.3879 5.39355H18.2502C17.9482 5.39355 17.7034 5.63858 17.7034 5.94043V22.0521C17.7034 22.069 17.7042 22.0854 17.7057 22.1019C17.7059 22.1036 17.7059 22.1051 17.7061 22.1066ZM20.4813 22.599L19.8191 23.8544L19.1571 22.599H20.4813ZM18.7971 6.48752H20.8411V8.20163H18.7971V6.48752Z" />
<path fill-rule="evenodd" clip-rule="evenodd" d="M8.96875 9.65967C8.66669 9.65967 8.42188 9.90448 8.42188 10.2065C8.42188 10.5084 8.66669 10.7534 8.96875 10.7534H13.3284C13.6304 10.7534 13.8752 10.5084 13.8752 10.2065C13.8752 9.90448 13.6304 9.65967 13.3284 9.65967H8.96875Z" />
<path fill-rule="evenodd" clip-rule="evenodd" d="M6.20703 12.6128C6.20703 12.9149 6.45184 13.1597 6.75391 13.1597H15.5432C15.8453 13.1597 16.0901 12.9149 16.0901 12.6128C16.0901 12.3109 15.8453 12.0659 15.5432 12.0659H6.75391C6.45184 12.0659 6.20703 12.3107 6.20703 12.6128Z" />
<path fill-rule="evenodd" clip-rule="evenodd" d="M15.5432 14.4722H6.75391C6.45184 14.4722 6.20703 14.717 6.20703 15.019C6.20703 15.3211 6.45184 15.5659 6.75391 15.5659H15.5432C15.8453 15.5659 16.0901 15.3211 16.0901 15.019C16.0901 14.717 15.8453 14.4722 15.5432 14.4722Z" />
<path fill-rule="evenodd" clip-rule="evenodd" d="M15.5432 16.8784H6.75391C6.45184 16.8784 6.20703 17.1232 6.20703 17.4253C6.20703 17.7271 6.45184 17.9722 6.75391 17.9722H15.5432C15.8453 17.9722 16.0901 17.7271 16.0901 17.4253C16.0901 17.1232 15.8453 16.8784 15.5432 16.8784Z" />
<path fill-rule="evenodd" clip-rule="evenodd" d="M15.5432 19.2852H6.75391C6.45184 19.2852 6.20703 19.53 6.20703 19.832C6.20703 20.1339 6.45184 20.3789 6.75391 20.3789H15.5432C15.8453 20.3789 16.0901 20.1339 16.0901 19.832C16.0901 19.53 15.8453 19.2852 15.5432 19.2852Z" />
</svg>
