<svg width="56" height="60" viewBox="0 0 56 60" fill="none" xmlns="http://www.w3.org/2000/svg">
<path d="M12 4H10V6H12V4Z" />
<path d="M16 4H14V6H16V4Z" />
<path d="M20 4H18V6H20V4Z" />
<path d="M52 0H10C7.79087 0 6 1.79087 6 4V22H1C0.44775 22 0 22.4478 0 23V41C0 41.5522 0.44775 42 1 42H6V45H1C0.44775 45 0 45.4478 0 46V54C0 54.5522 0.44775 55 1 55H6V56C6 58.2091 7.79087 60 10 60H52C54.2091 60 56 58.2091 56 56V4C56 1.79087 54.2091 0 52 0ZM6 53H2V47H6V53ZM2 40V24H28V40H2ZM8 47H10V53H8V47ZM54 56C54 57.1046 53.1046 58 52 58H10C8.89537 58 8 57.1046 8 56V55H42C42.1547 55.0018 42.3077 54.9675 42.447 54.9L50.447 50.9C50.9412 50.6536 51.1422 50.0532 50.8959 49.5589C50.799 49.3644 50.6414 49.2069 50.447 49.11L42.447 45.11C42.3176 45.0469 42.176 45.0127 42.032 45.01C42.021 45.01 42.011 45.002 42 45.002H8V42H29C29.5522 42 30 41.5522 30 41V23C30 22.4478 29.5522 22 29 22H8V10H54V56ZM41 51V53H12V51H41ZM12 49V47H41V49H12ZM43 52.382V47.618L47.764 50L43 52.382ZM54 8H8V4C8 2.89538 8.89537 2 10 2H52C53.1046 2 54 2.89538 54 4V8Z" />
<path d="M11.6001 29.8002L10.4001 28.2002L6.40007 31.2002C5.9582 31.5316 5.8687 32.1583 6.20007 32.6002C6.25695 32.6759 6.32432 32.7433 6.40007 32.8002L10.4001 35.8002L11.6001 34.2002L8.66707 32.0002L11.6001 29.8002Z" />
<path d="M23.7999 31.4002C23.743 31.3244 23.6757 31.2571 23.5999 31.2002L19.5999 28.2002L18.3999 29.8002L21.3329 32.0002L18.3999 34.2002L19.5999 35.8002L23.5999 32.8002C24.0418 32.4688 24.1313 31.8421 23.7999 31.4002Z" />
<path d="M16.0709 26.6291L12.0698 36.6279L13.9266 37.3709L17.9277 27.3721L16.0709 26.6291Z" />
<path d="M30 17H11V19H30V17Z" />
<path d="M30 13H15V15H30V13Z" />
<path d="M13 13H11V15H13V13Z" />
<path d="M51 40H36V42H51V40Z" />
<path d="M34 40H32V42H34V40Z" />
<path d="M47 29.475C51.1328 26.7136 52.2447 21.1246 49.4833 16.9916C46.7218 12.8587 41.1329 11.747 37 14.5083C32.8671 17.2697 31.7552 22.8587 34.5166 26.9917C35.1732 27.9745 36.0171 28.8183 37 29.4751V31H35V33H37V36C37 36.5522 37.4477 37 38 37H46C46.5522 37 47 36.5522 47 36V33H49V31H47V29.475ZM45 35H39V33H45V35ZM45.5 28.056C45.1908 28.2345 45.0003 28.5641 45 28.921V31H43V25.414L45.707 22.707L44.293 21.293L42 23.586L39.707 21.293L38.293 22.707L41 25.414V31H39V28.921C38.9996 28.5641 38.8091 28.2345 38.5 28.056C35.1554 26.1171 34.0157 21.834 35.9546 18.4893C37.2047 16.3328 39.5074 15.0037 42 15C45.866 15.0058 48.9952 18.1446 48.9893 22.0106C48.9855 24.5032 47.6565 26.8058 45.5 28.056Z" />
</svg>
