<svg width="33" height="61" viewBox="0 0 33 61" fill="none" xmlns="http://www.w3.org/2000/svg">
<path d="M21.7961 8.3457H19.9025C17.6504 8.3457 15.6131 9.39366 14.1661 11.2965C12.5212 13.4596 11.6873 16.5952 11.6873 20.6167C11.6873 24.0931 12.4705 27.0015 13.9521 29.0274C15.5188 31.1695 17.8036 32.3017 20.5597 32.3017H21.7962C22.4673 32.3017 23.0113 31.7577 23.0113 31.0867V9.56082C23.0113 8.88982 22.4672 8.3457 21.7961 8.3457ZM20.581 29.8713H20.5595C16.4655 29.8713 14.1174 26.4981 14.1174 20.6167C14.1174 13.3612 17.1058 10.7761 19.9024 10.7761H20.5809V29.8713H20.581Z" />
<path d="M31.1888 1.05999C30.4865 0.376484 29.5113 0 28.443 0H20.1216C15.3088 0 10.8679 1.85478 7.61694 5.22253C3.92179 9.05052 1.96872 14.627 1.96872 21.3492C1.96872 28.5003 4.88385 34.2889 10.209 37.7845L0.52712 55.3089C-0.169257 56.5661 -0.176048 58.0106 0.50913 59.1732C1.18311 60.3172 2.40311 61 3.77263 61H8.95477C10.592 61 11.9466 60.1576 12.5863 58.7443L20.581 43.1069V57.4432C20.581 59.3711 22.2087 60.9999 24.1352 60.9999H28.6623C30.7654 60.9999 32.2918 59.4736 32.2917 57.3706V3.77807C32.2917 2.7176 31.9001 1.75208 31.1888 1.05999ZM29.8616 57.3707C29.8616 58.1216 29.4132 58.5698 28.6623 58.5698H24.1352C23.5365 58.5698 23.0113 58.0434 23.0113 57.4433V39.4319C23.0113 38.7609 22.4673 38.2167 21.7962 38.2167H21.0952C20.6389 38.2167 20.2211 38.4724 20.0134 38.8786L10.4083 57.6657C10.3978 57.6861 10.3879 57.707 10.3786 57.7279C10.1321 58.2865 9.65305 58.5695 8.95489 58.5695H3.77275C3.26557 58.5695 2.83916 58.3398 2.60291 57.9392C2.35926 57.5257 2.37797 56.9828 2.65366 56.4853L12.8978 37.943C13.2194 37.3612 13.0135 36.6291 12.4361 36.2998C7.17815 33.3022 4.39895 28.1322 4.39895 21.3492C4.39895 8.28027 12.2957 2.43035 20.1216 2.43035H28.443C28.8809 2.43035 29.2442 2.55878 29.4938 2.80159C29.7342 3.03558 29.8612 3.37323 29.8612 3.77807V57.3707H29.8616Z" />
</svg>
