<svg width="24" height="28" viewBox="0 0 24 28" fill="none" xmlns="http://www.w3.org/2000/svg">
<path d="M23.9894 21.0411L23.0971 16.3191C23.0598 16.1233 22.9295 15.9581 22.7475 15.8769C22.5659 15.7952 22.3557 15.8083 22.1851 15.9109L18.0701 18.3918C17.8291 18.5371 17.7192 18.8285 17.8041 19.0964C17.8886 19.3647 18.1459 19.5394 18.4264 19.5199L20.0337 19.4078C18.499 21.4706 16.1891 22.3172 13.5397 22.5342V9.02528H14.8628C15.0762 9.18415 15.3385 9.2813 15.6249 9.2813C16.3334 9.2813 16.9081 8.70702 16.9081 7.99833C16.9081 7.28923 16.3334 6.71495 15.6249 6.71495C15.338 6.71495 15.0757 6.81257 14.8623 6.97144H13.5396V5.11613C14.2926 4.61542 14.791 3.76107 14.791 2.79142C14.791 1.25249 13.5388 0 12.0001 0C10.4613 0 9.20895 1.25249 9.20895 2.79142C9.20895 3.76107 9.70736 4.61542 10.4603 5.11613V6.9715H9.13769C8.92433 6.81263 8.66204 6.71501 8.37517 6.71501C7.66664 6.71501 7.09196 7.28929 7.09196 7.99839C7.09196 8.70702 7.66664 9.28136 8.37517 9.28136C8.66157 9.28136 8.92385 9.18421 9.13722 9.02534H10.4603V22.5342C7.81093 22.3172 5.50102 21.4706 3.96642 19.4078L5.57369 19.5199C5.85419 19.5394 6.11153 19.3648 6.19599 19.0964C6.28087 18.8286 6.17106 18.5371 5.92999 18.3919L1.81495 15.911C1.64425 15.8084 1.43413 15.7952 1.25253 15.8769C1.07052 15.9582 0.940258 16.1234 0.903007 16.3191L0.0106363 21.0412C-0.0415856 21.3176 0.10229 21.5936 0.358743 21.7089C0.615197 21.8247 0.917035 21.7493 1.08956 21.5269L2.04953 20.2885C3.9264 23.3282 6.87765 25.8731 10.2815 26.5336L11.5696 27.8219C11.8075 28.0594 12.1923 28.0594 12.4298 27.8219L13.7179 26.5336C17.1218 25.8735 20.0734 23.3282 21.9503 20.2885L22.9103 21.5269C23.0828 21.7493 23.3847 21.8247 23.6411 21.7089C23.8977 21.5936 24.0416 21.3175 23.9894 21.0411ZM12.0001 2.05373C12.4068 2.05373 12.7376 2.38467 12.7376 2.79142C12.7376 3.19817 12.4068 3.52911 12.0001 3.52911C11.5934 3.52911 11.2624 3.19817 11.2624 2.79142C11.2625 2.38467 11.5934 2.05373 12.0001 2.05373Z" fill="#FD8694"/>
</svg>
