<svg xmlns="http://www.w3.org/2000/svg" style="display:none"><symbol id="arrow-left" viewBox="0 0 30 7"><path fill="#000" d="M3.658 7l.73-.7L.733 2.8 0 3.5z"/><path fill="#000" d="M4.39.7L3.657 0 .001 3.5l.73.7z"/><path fill="#000" d="M1 3v1h29V3z"/></symbol><symbol id="arrow-right" viewBox="0 0 30 7"><path fill="#000" d="M26.12 7l-.731-.7 3.657-3.5.731.7z"/><path fill="#000" d="M25.388.7l.732-.7 3.657 3.5-.731.7z"/><path fill="#000" d="M29 3v1H0V3z"/></symbol><symbol id="conversion" viewBox="0 0 30 30"><path d="M2.222 26.667h4.445v-6.111H2.222v6.11zm1.111-5h2.223v1.111H3.333v-1.111zm0 2.222h2.223v1.667H3.333v-1.667zm5.556 2.778h4.444v-9.444H8.89v9.444zM10 18.334h2.222v2.777H10v-2.777zm0 3.889h2.222v3.333H10v-3.333zm5.556 4.444H20V13.334h-4.444v13.333zm1.11-12.222h2.223v4.444h-2.222v-4.444zm0 5.555h2.223v5.556h-2.222V20zm5.556 6.667h4.445V10h-4.445v16.666zm1.111-15.555h2.223v5.555h-2.223v-5.555zm0 6.666h2.223v7.778h-2.223v-7.778zM0 28.89h28.889V7.779H30V30H0v-1.111zM18.01 7.223h-1.343a.556.556 0 1 1 0-1.11h2.777c.307-.001.556.248.556.555v2.777a.556.556 0 0 1-1.111 0V7.903a27.807 27.807 0 0 1-6.096 5.533 27.859 27.859 0 0 1-6.639 3.247l-3.2 1.066a.556.556 0 1 1-.352-1.055l3.2-1.067A26.67 26.67 0 0 0 18.01 7.223zm9.718-3.315a3.333 3.333 0 1 0-6.566-1.148 3.333 3.333 0 0 0 6.566 1.148zm-1.094-.191a2.222 2.222 0 1 1-4.378-.765 2.222 2.222 0 0 1 4.378.765zM25 2.779v1.11a.556.556 0 0 1-1.111 0V2.78a.555.555 0 1 1 1.111 0z"/></symbol><symbol id="design" viewBox="0 0 35 30"><path d="M33.25 15h-.583V2.885C32.665 1.292 31.36.002 29.75 0H5.25C3.64.002 2.335 1.292 2.333 2.885v8.654H1.75A1.74 1.74 0 0 0 0 13.269v15C0 29.225.783 30 1.75 30h22.167a.58.58 0 0 0 .583-.577c-.002-1.592-1.307-2.883-2.917-2.884h-1.75v-3.462h7v5.192c0 .956.784 1.731 1.75 1.731h4.667A1.74 1.74 0 0 0 35 28.27V16.73A1.74 1.74 0 0 0 33.25 15zM12.833 28.27a.58.58 0 0 1-.583.576H1.75a.58.58 0 0 1-.583-.577v-.577h11.666v.577zm0-1.732H1.167V13.27a.58.58 0 0 1 .583-.577h10.5a.58.58 0 0 1 .583.577v13.27zm8.75 1.154c.742.001 1.402.463 1.65 1.154h-9.34c.069-.185.105-.38.107-.577v-.577h7.583zM14 26.538v-3.461h1.167v3.461H14zm2.333 0v-3.461h2.334v3.461h-2.334zm10.5-4.615H14v-3.461h12.833v3.461zm0-5.192v.577H14v-4.039a1.695 1.695 0 0 0-.2-.785c.01-.008.02-.01.03-.019l5.774-5.712a.572.572 0 0 0-.014-.815.588.588 0 0 0-.81 0l-5.776 5.711c-.014.015-.02.033-.032.048a1.745 1.745 0 0 0-.722-.158H3.5V2.885c0-.956.783-1.731 1.75-1.731h24.5c.966 0 1.75.775 1.75 1.73V15h-2.917a1.74 1.74 0 0 0-1.75 1.73zm7 11.538a.58.58 0 0 1-.583.577h-4.667A.58.58 0 0 1 28 28.27v-.577h5.833v.577zm0-1.73H28V16.73a.58.58 0 0 1 .583-.577h4.667a.58.58 0 0 1 .583.577v9.807z"/><path d="M6.966 19.187a.684.684 0 0 0-.94 0L3.202 21.9a.622.622 0 0 0-.016.905.684.684 0 0 0 .957 0l2.822-2.713c.119-.198-.12-.574 0-.905zM10.804 19.18a.64.64 0 0 0-.89 0l-2.718 2.718a.64.64 0 1 0 .906.906l2.718-2.718a.64.64 0 0 0-.016-.906zM22.846 7.165a.454.454 0 0 0-.7 0l-4.992 5.824a.66.66 0 0 0-.012.831.455.455 0 0 0 .725 0l4.991-5.823a.66.66 0 0 0-.012-.832zM32.747 20.233a.829.829 0 0 0-1.151 0l-2.343 2.343a.829.829 0 1 0 1.171 1.171l2.343-2.343a.829.829 0 0 0-.02-1.171zM17.501 20h-.005a.5.5 0 1 0 .005 0zM18.5 3h-2a.5.5 0 0 0 0 1h2a.5.5 0 0 0 0-1z"/></symbol><symbol id="facebook" viewBox="0 0 10 18"><path d="M9.623.004L7.225 0C4.53 0 2.789 1.739 2.789 4.43v2.042H.377A.372.372 0 0 0 0 6.84V9.8c0 .203.169.367.377.367H2.79v7.467c0 .203.169.367.377.367h3.146a.372.372 0 0 0 .378-.367v-7.467h2.82a.372.372 0 0 0 .376-.367l.002-2.96c0-.097-.04-.19-.11-.26a.383.383 0 0 0-.268-.107H6.69V4.741c0-.832.203-1.255 1.317-1.255h1.616A.372.372 0 0 0 10 3.119V.37a.372.372 0 0 0-.377-.367z"/></symbol><symbol id="header-logo" viewBox="0 0 89 17"><path d="M12.962 13h-1.926V8.368c0-.89-.127-1.535-.382-1.934-.249-.398-.672-.598-1.27-.598-.503 0-.932.252-1.286.756-.349.503-.523 1.107-.523 1.81V13H5.64V8.21c0-1.582-.56-2.374-1.677-2.374-.52 0-.95.238-1.287.714-.332.476-.498 1.093-.498 1.851V13H.253V4.5H2.18v1.345h.033C2.827 4.815 3.72 4.3 4.894 4.3c.586 0 1.098.163 1.535.49.443.32.744.744.905 1.27.63-1.174 1.572-1.76 2.822-1.76 1.87 0 2.806 1.154 2.806 3.461V13zm10.906-3.727h-5.794c.022.786.263 1.392.722 1.818.465.426 1.101.639 1.91.639.907 0 1.74-.271 2.498-.814v1.553c-.775.487-1.799.73-3.072.73-1.25 0-2.232-.384-2.946-1.154-.709-.774-1.063-1.862-1.063-3.262 0-1.322.39-2.399 1.17-3.229.786-.835 1.76-1.253 2.922-1.253 1.163 0 2.062.373 2.698 1.12.637.747.955 1.785.955 3.113v.739zm-1.86-1.361c-.005-.692-.168-1.229-.49-1.61-.32-.388-.763-.582-1.327-.582-.554 0-1.024.202-1.412.606-.381.404-.617.933-.705 1.586h3.934zM34.79 13h-1.925v-1.444h-.034c-.62 1.095-1.574 1.643-2.863 1.643-1.046 0-1.885-.379-2.516-1.137-.625-.764-.938-1.801-.938-3.113 0-1.405.346-2.532 1.038-3.378.697-.847 1.624-1.27 2.78-1.27 1.146 0 1.98.46 2.5 1.378h.032V.416h1.926V13zm-1.9-3.885V8.003c0-.603-.197-1.115-.59-1.536-.393-.42-.894-.63-1.502-.63-.72 0-1.287.268-1.702.805-.41.536-.614 1.28-.614 2.233 0 .863.196 1.546.59 2.05.398.498.931.747 1.601.747.659 0 1.193-.24 1.602-.722.41-.487.614-1.099.614-1.835zm6.747-6.4c-.316 0-.587-.102-.814-.307a1.016 1.016 0 0 1-.332-.78c0-.315.11-.578.332-.789.227-.21.498-.315.814-.315.326 0 .603.105.83.315.227.21.34.474.34.789 0 .299-.113.556-.34.772-.227.21-.504.315-.83.315zM40.59 13h-1.925V4.5h1.925V13zM51 13h-1.868v-1.328h-.033c-.586 1.018-1.447 1.527-2.581 1.527-.836 0-1.492-.227-1.968-.68-.47-.454-.705-1.055-.705-1.802 0-1.605.924-2.54 2.772-2.805l2.524-.357c0-1.212-.576-1.818-1.727-1.818-1.013 0-1.926.348-2.74 1.046V5.098c.897-.532 1.932-.797 3.105-.797C49.926 4.3 51 5.358 51 7.47V13zm-1.86-4.175l-1.784.249c-.553.072-.971.207-1.253.406-.277.194-.415.537-.415 1.03 0 .36.127.655.381.888.26.227.606.34 1.038.34.587 0 1.07-.204 1.453-.614.387-.415.58-.935.58-1.56v-.74zm12.218 2.947h-.033V13h-1.926V.416h1.926v5.578h.033c.659-1.129 1.621-1.693 2.889-1.693 1.073 0 1.912.382 2.515 1.145.609.758.913 1.777.913 3.055 0 1.422-.34 2.562-1.021 3.42-.68.852-1.61 1.278-2.789 1.278-1.107 0-1.942-.476-2.507-1.428zm-.05-3.379v1.054c0 .62.197 1.146.59 1.577.398.432.902.648 1.51.648.714 0 1.273-.277 1.677-.83.41-.56.614-1.337.614-2.333 0-.835-.19-1.488-.572-1.959-.377-.476-.889-.714-1.536-.714-.686 0-1.24.244-1.66.73-.415.488-.623 1.097-.623 1.827zM77.327 13h-1.868v-1.328h-.033c-.587 1.018-1.448 1.527-2.582 1.527-.835 0-1.491-.227-1.967-.68-.47-.454-.706-1.055-.706-1.802 0-1.605.924-2.54 2.773-2.805l2.523-.357c0-1.212-.575-1.818-1.726-1.818-1.013 0-1.926.348-2.74 1.046V5.098c.897-.532 1.932-.797 3.105-.797 2.147 0 3.22 1.057 3.22 3.17V13zm-1.86-4.175l-1.784.249c-.554.072-.972.207-1.254.406-.277.194-.415.537-.415 1.03 0 .36.127.655.382.888.26.227.606.34 1.037.34.587 0 1.071-.204 1.453-.614.387-.415.581-.935.581-1.56v-.74zM88.407 4.5l-3.835 9.861c-.797 1.76-1.915 2.64-3.354 2.64-.404 0-.741-.036-1.013-.108v-1.602c.305.1.582.15.83.15.72 0 1.257-.355 1.611-1.063l.573-1.395L79.84 4.5h2.134l2.025 6.176c.022.077.072.282.15.614h.04c.029-.127.078-.326.15-.598L86.464 4.5h1.943z" fill="#000"/></symbol><symbol id="instagram" viewBox="0 0 20 20"><path d="M14.19 0H5.81A5.816 5.816 0 0 0 0 5.81v8.38A5.816 5.816 0 0 0 5.81 20h8.38A5.816 5.816 0 0 0 20 14.19V5.81A5.816 5.816 0 0 0 14.19 0zm4.248 14.19a4.252 4.252 0 0 1-4.248 4.248H5.81a4.252 4.252 0 0 1-4.247-4.248V5.81A4.252 4.252 0 0 1 5.81 1.563h8.38a4.252 4.252 0 0 1 4.248 4.247v8.38z"/><path d="M10 4.61A5.397 5.397 0 0 0 4.61 10 5.397 5.397 0 0 0 10 15.39 5.397 5.397 0 0 0 15.39 10 5.397 5.397 0 0 0 10 4.61zm0 9.218A3.832 3.832 0 0 1 6.172 10 3.832 3.832 0 0 1 10 6.172 3.832 3.832 0 0 1 13.828 10 3.832 3.832 0 0 1 10 13.828zM15.469 5.313a.781.781 0 1 0 0-1.563.781.781 0 0 0 0 1.563z"/></symbol><symbol id="marketing" viewBox="0 0 30 30"><path d="M29.516 0H.484A.483.483 0 0 0 0 .484v29.032c0 .268.216.484.484.484h29.032a.483.483 0 0 0 .484-.484V.484A.483.483 0 0 0 29.516 0zm-.484.968v4.838H.968V.968h28.064zM.968 29.032V6.774h28.064v22.258H.968z"/><path d="M3.5 5C4.327 5 5 4.327 5 3.5S4.327 2 3.5 2 2 2.673 2 3.5 2.673 5 3.5 5zm0-2a.5.5 0 1 1 0 1 .5.5 0 0 1 0-1zM7.5 5C8.327 5 9 4.327 9 3.5S8.327 2 7.5 2 6 2.673 6 3.5 6.673 5 7.5 5zm0-2a.5.5 0 1 1 0 1 .5.5 0 0 1 0-1zM11.5 5c.827 0 1.5-.673 1.5-1.5S12.327 2 11.5 2 10 2.673 10 3.5 10.673 5 11.5 5zm0-2a.5.5 0 1 1 0 1 .5.5 0 0 1 0-1zM14.536 16.036H8.964v-5.572A.464.464 0 0 0 8.5 10 6.507 6.507 0 0 0 2 16.5C2 20.084 4.916 23 8.5 23s6.5-2.916 6.5-6.5a.464.464 0 0 0-.464-.464zm-6.5-.657l-3.128-3.128a5.54 5.54 0 0 1 3.128-1.303v4.431zm.464 6.692A5.577 5.577 0 0 1 2.929 16.5c0-1.37.5-2.62 1.323-3.592l3.92 3.92c.083.084.2.136.328.136h5.552A5.58 5.58 0 0 1 8.5 22.071z"/><path d="M11.4 8c-.221 0-.4.209-.4.467v6.066c0 .258.179.467.4.467h5.2c.221 0 .4-.209.4-.467C17 10.931 14.488 8 11.4 8zm.4 6.067V8.952c2.328.225 4.19 2.399 4.384 5.115H11.8zM27 8h1v1h-1V8zM18 8h8v1h-8V8zM27 10h1v1h-1v-1zM18 10h8v1h-8v-1zM27 12h1v1h-1v-1zM18 12h8v1h-8v-1zM27 14h1v1h-1v-1zM18 14h8v1h-8v-1zM27 15h1v1h-1v-1zM18 15h8v1h-8v-1zM19.5 21h-2a.5.5 0 0 0-.5.5v6a.5.5 0 0 0 .5.5h2a.5.5 0 0 0 .5-.5v-6a.5.5 0 0 0-.5-.5zm-.5 6h-1v-5h1v5zM15.667 23h-1.334c-.184 0-.333.223-.333.5v4c0 .277.149.5.333.5h1.334c.184 0 .333-.223.333-.5v-4c0-.277-.149-.5-.333-.5zm-.334 4h-.666v-3h.666v3zM23.5 19h-2a.5.5 0 0 0-.5.5v8a.5.5 0 0 0 .5.5h2a.5.5 0 0 0 .5-.5v-8a.5.5 0 0 0-.5-.5zm-.5 8h-1v-7h1v7zM27.5 17h-2a.5.5 0 0 0-.5.5v10a.5.5 0 0 0 .5.5h2a.5.5 0 0 0 .5-.5v-10a.5.5 0 0 0-.5-.5zM27 27h-1v-9h1v9z"/></symbol><symbol id="texts" viewBox="0 0 28 28"><path clip-rule="evenodd" d="M23.977 0H9.717a.541.541 0 0 0-.087.01h-.002a.53.53 0 0 0-.146.052l-.004.002a.543.543 0 0 0-.06.038l-.014.01a.553.553 0 0 0-.055.048L3.66 5.85a.551.551 0 0 0-.047.055l-.011.014a.565.565 0 0 0-.038.06l-.002.004a.503.503 0 0 0-.051.146v.002a.526.526 0 0 0-.01.068v.02l-.001.017v21.218c0 .302.245.547.547.547h19.93a.547.547 0 0 0 .547-.547V.547A.546.546 0 0 0 23.977 0zM9.19 1.867V5.69H5.367L9.19 1.867zm14.242 25.04H4.594V6.781h5.141a.547.547 0 0 0 .547-.547V1.094h13.149v25.812z"/><path clip-rule="evenodd" d="M17.706 22.107a.552.552 0 0 0 .01.064l.004.013a.504.504 0 0 0 .045.119l.001.004.002.004.002.003 1.565 2.968a.547.547 0 0 0 .968 0l1.565-2.968.001-.003.003-.004.002-.005a.573.573 0 0 0 .024-.053l.005-.015a.536.536 0 0 0 .015-.05l.004-.013a.522.522 0 0 0 .01-.064v-.005a.585.585 0 0 0 .003-.05v-4.464a.547.547 0 1 0-1.094 0v3.917h-2.044V9.295h2.044v3.918a.547.547 0 1 0 1.094 0V5.94a.547.547 0 0 0-.547-.546H18.25a.547.547 0 0 0-.547.546v16.112c0 .017.001.033.003.05v.005zm2.775.492l-.662 1.255-.662-1.255h1.324zM18.797 6.488h2.044v1.714h-2.044V6.488zM8.969 9.66a.547.547 0 1 0 0 1.093h4.36a.547.547 0 0 0 0-1.093h-4.36zM6.207 12.613c0 .302.245.547.547.547h8.79a.547.547 0 1 0 0-1.094h-8.79a.547.547 0 0 0-.547.547zM15.543 14.472h-8.79a.547.547 0 1 0 0 1.094h8.79a.547.547 0 1 0 0-1.094zM15.543 16.878h-8.79a.547.547 0 1 0 0 1.094h8.79a.547.547 0 0 0 0-1.094zM15.543 19.285h-8.79a.547.547 0 1 0 0 1.094h8.79a.547.547 0 0 0 0-1.094z"/></symbol><symbol id="vk" viewBox="0 0 27 15"><path d="M26.857 13.547a1.79 1.79 0 0 0-.092-.171c-.468-.822-1.363-1.83-2.685-3.026l-.028-.027-.014-.014-.014-.013h-.014c-.6-.557-.98-.931-1.139-1.123-.29-.365-.356-.735-.197-1.109.113-.283.535-.88 1.266-1.793.384-.484.688-.871.913-1.163 1.622-2.1 2.325-3.44 2.109-4.025l-.084-.136c-.056-.082-.201-.158-.435-.226-.235-.069-.535-.08-.9-.034l-4.049.027a.539.539 0 0 0-.281.007l-.183.041-.07.034-.056.041a.617.617 0 0 0-.155.144.932.932 0 0 0-.14.24 22.104 22.104 0 0 1-1.505 3.08 29.114 29.114 0 0 1-.956 1.471c-.29.415-.534.72-.73.917a5.052 5.052 0 0 1-.535.472c-.16.119-.28.17-.365.15a10.524 10.524 0 0 1-.24-.054.92.92 0 0 1-.315-.335 1.472 1.472 0 0 1-.162-.534 5.718 5.718 0 0 1-.05-.555c-.004-.155-.002-.374.008-.657.01-.283.014-.474.014-.575 0-.347.007-.723.02-1.129.015-.406.026-.728.036-.965.01-.237.014-.488.014-.753s-.017-.472-.05-.623a2.088 2.088 0 0 0-.146-.438.743.743 0 0 0-.289-.328 1.65 1.65 0 0 0-.47-.185C14.39.07 13.757.01 12.988.002c-1.743-.018-2.863.091-3.36.329-.196.1-.374.237-.533.41-.17.2-.193.31-.07.329.561.082.96.278 1.194.588l.084.164c.066.12.132.33.197.63.066.301.108.634.127 1a10.37 10.37 0 0 1 0 1.71c-.047.475-.091.844-.134 1.11-.042.264-.105.478-.19.642-.084.165-.14.265-.168.301a.24.24 0 0 1-.07.069 1.078 1.078 0 0 1-.38.069c-.131 0-.29-.064-.478-.192a3.34 3.34 0 0 1-.583-.527 7.05 7.05 0 0 1-.682-.938 16.228 16.228 0 0 1-.788-1.423l-.224-.398c-.141-.255-.333-.627-.577-1.115-.244-.488-.46-.96-.646-1.417A.905.905 0 0 0 5.37.905L5.3.864a.97.97 0 0 0-.225-.116 1.523 1.523 0 0 0-.323-.09L.9.687c-.394 0-.66.087-.801.26l-.057.082a.433.433 0 0 0-.042.22c0 .1.028.223.084.369A44.664 44.664 0 0 0 1.92 5.34c.66 1.196 1.235 2.158 1.722 2.888.487.73.984 1.42 1.49 2.067.506.648.841 1.063 1.005 1.246.164.182.293.32.387.41l.351.329c.225.219.555.481.991.787.436.306.919.607 1.448.904.53.296 1.146.538 1.849.725a6.555 6.555 0 0 0 2.052.226h1.617c.328-.028.576-.128.745-.301l.056-.069a.896.896 0 0 0 .105-.253c.033-.114.05-.24.05-.376-.01-.393.02-.746.09-1.061.07-.315.15-.552.24-.712.09-.16.19-.294.302-.403.113-.11.193-.176.24-.199a.953.953 0 0 1 .112-.048c.225-.073.49-.002.794.213.305.214.59.479.858.793.267.315.588.669.963 1.061.375.393.703.684.984.876l.28.165c.188.11.432.21.732.3.3.092.562.115.787.07l3.599-.055c.356 0 .633-.058.829-.172.197-.114.314-.24.351-.376.038-.137.04-.292.008-.466a1.688 1.688 0 0 0-.1-.362z"/></symbol></svg>