<svg xmlns="http://www.w3.org/2000/svg" style="display:none"><defs><linearGradient id="a" x1="30" y1="-2.556" x2="30" y2="61.27" gradientUnits="userSpaceOnUse"><stop stop-color="#FC5C7D"/><stop offset=".129" stop-color="#F35E85"/><stop offset=".343" stop-color="#D9659B"/><stop offset=".616" stop-color="#B070BF"/><stop offset=".934" stop-color="#777FF0"/><stop offset="1" stop-color="#6A82FB"/></linearGradient></defs><symbol id="all-includes" viewBox="0 0 58 60"><path d="M52 50a6.006 6.006 0 0 0 6-6V13.003a6.006 6.006 0 0 0-6-6H39.9C37.15.985 30.043-1.663 24.026 1.087a11.98 11.98 0 0 0-5.915 5.915H6a6.006 6.006 0 0 0-6 6V44a6.006 6.006 0 0 0 6 6h15.614l-1.335 4H9a3 3 0 1 0 0 5.999H49a3 3 0 1 0 0-6H37.721l-1.335-4h15.613zM29 2.002c5.523 0 10 4.477 10 10 0 5.522-4.477 10-10 10-5.522 0-10-4.477-10-10 .007-5.52 4.48-9.994 10-10zm-22.999 7h11.4a11.842 11.842 0 0 0 1.6 9.619v6.66l-4.238 1.412a3.977 3.977 0 1 0 .163 2.053l5.39-1.8a1 1 0 0 0 .685-.945v-5.08a11.954 11.954 0 0 0 5 2.685v5.86l-1.8 1.2a4.123 4.123 0 1 0 1.338 1.511l2.016-1.344a1 1 0 0 0 .445-.832v-6.05c.331.027.662.05 1 .05.338 0 .67-.023 1-.05V28a1 1 0 0 0 .445.832l2.016 1.344a3.938 3.938 0 0 0-.46 1.824 4.012 4.012 0 1 0 1.8-3.335l-1.8-1.2v-3.86A11.954 11.954 0 0 0 37 20.92v4.081a1 1 0 0 0 .553.895l5.513 2.756a3.99 3.99 0 1 0 .223-2.125l-4.29-2.144v-5.762a11.843 11.843 0 0 0 1.606-9.619h11.394a4 4 0 0 1 4 4V40H2.001V13a4 4 0 0 1 4-3.999zm7 19a2 2 0 1 1-4 0 2 2 0 0 1 4 0zM24 34a2 2 0 1 1-4 0 2 2 0 0 1 4 0zm11.999-4a2 2 0 1 1 0 4 2 2 0 0 1 0-4zm9-2a2 2 0 1 1 4 0 2 2 0 0 1-4 0zM2 44.001v-2H56v2a4 4 0 0 1-4 4H6.001a4 4 0 0 1-4-4zM50 57a1 1 0 0 1-1 1H9.002a1 1 0 0 1 0-2H49a1 1 0 0 1 1 1zM35.61 54H22.39l1.335-4h10.553l1.333 4z"/><path d="M28.002 44h2v2h-2v-2zM28 7.416v6.586h2V7.416l2.293 2.293 1.414-1.414-4-4a1 1 0 0 0-1.414 0l-4 4 1.414 1.414L28 7.416z"/><path d="M24 18.002h10a1 1 0 0 0 1-1v-3h-2v2h-8v-2h-2v3a1 1 0 0 0 1 1zM5.001 16.002h9v2H5v-2zM5.001 20.002h6v2H5v-2zM9.001 12.002h5v2H9v-2zM5.001 12.002h2v2H5v-2zM5.001 35.001h2v2H5v-2zM9.001 35.001h2v2H9v-2zM13 35.001h2v2h-2v-2zM50.999 35.001h2v2h-2v-2zM47 35.001h2v2h-2v-2zM43 35.001h2v2h-2v-2zM44 16.002h9v2h-9v-2zM44 20.002h6v2h-6v-2zM48 12.002h5v2h-5v-2zM44 12.002h2v2h-2v-2z"/></symbol><symbol id="analisys" viewBox="0 0 57 59"><path d="M21.63 31.477a7.873 7.873 0 0 0-7.864 7.863 7.864 7.864 0 1 0 7.863-7.863zm.982 2.054a5.905 5.905 0 0 1 4.827 4.826h-4.827v-4.826zm-4.926 1.423a5.883 5.883 0 0 1 2.96-1.423v5.464l-3.412 4.265a5.882 5.882 0 0 1 .452-8.306zm3.943 10.284a5.86 5.86 0 0 1-2.862-.745l3.335-4.17h5.337a5.904 5.904 0 0 1-5.81 4.915zM15.732 49.17h-1.966v1.967h1.966V49.17zM29.493 49.17H17.697v1.967h11.796V49.17zM29.493 53.102H13.766v1.967h15.727v-1.967zM37.357 49.17h-1.966v1.967h1.966V49.17zM51.118 49.17H39.323v1.967h11.795V49.17zM51.119 53.102H35.39v1.967H51.12v-1.967zM39.323 9.852h-1.966v1.966h1.966V9.852zM51.118 9.852h-9.83v1.966h9.83V9.852zM51.118 13.783H37.358v1.966h13.761v-1.966zM39.323 20.664h-1.966v1.966h1.966v-1.966zM51.118 20.664h-9.83v1.966h9.83v-1.966zM51.118 24.596H37.358v1.966h13.761v-1.966zM49.153 37.374h-2.95V32.46a.983.983 0 0 0-.982-.982h-3.932a.983.983 0 0 0-.983.982v2.95h-2.949a.983.983 0 0 0-.983.982v9.83c0 .543.44.983.983.983h11.796c.543 0 .983-.44.983-.983v-7.864a.983.983 0 0 0-.983-.983zm-8.847 7.864H38.34v-7.864h1.966v7.864zm3.932 0h-1.966V33.443h1.966v11.795zm3.932 0h-1.966V39.34h1.966v5.898zM34.408 8.868H22.612a.983.983 0 0 0-.983.983v5.898c0 .543.44.983.983.983h11.796c.543 0 .983-.44.983-.983V9.851a.983.983 0 0 0-.983-.983zm-.983 5.898h-9.83v-3.932h9.83v3.932zM34.408 19.68H22.612a.983.983 0 0 0-.983.984v5.897c0 .543.44.983.983.983h11.796c.543 0 .983-.44.983-.983v-5.897a.983.983 0 0 0-.983-.983zm-.983 5.898h-9.83v-3.931h9.83v3.931z"/><path d="M55.05 3.954H17.184A8.847 8.847 0 1 0 4.92 16.216v13.295c0 .223.076.44.215.614l3.717 4.646v23.246c0 .543.44.983.983.983H55.05c.543 0 .983-.44.983-.983V4.937a.983.983 0 0 0-.983-.983zM6.393 14.82a6.88 6.88 0 0 1 3.44-12.833 6.88 6.88 0 0 1 3.441 12.834.983.983 0 0 0-.491.85v2.043h-1.966v-5.49l2.66-2.661-1.39-1.39-2.253 2.254L7.58 8.174l-1.39 1.39 2.66 2.66v5.491H6.886v-2.043a.983.983 0 0 0-.492-.85zm.492 6.826v-1.966h5.898v1.966H6.885zm5.898 1.966v4.915h-1.966v-4.915h1.966zm-5.898 0H8.85v4.915H6.885v-4.915zm1.061 6.88h3.775l-1.887 2.36-1.888-2.36zm46.121 26.541h-43.25V34.771l3.716-4.646a.983.983 0 0 0 .216-.614V16.216A8.877 8.877 0 0 0 18.68 8.87a8.781 8.781 0 0 0-.516-2.95h35.903v51.115z"/></symbol><symbol id="analitics" viewBox="0 0 60 60"><path d="M29 50h2v2h-2v-2z" fill="url(#a)"/><path d="M59 52h-1V16a4 4 0 0 0-4-4H40.93c.03-.332.07-.662.07-1 0-6.075-4.925-11-11-11S19 4.925 19 11c0 .338.04.668.07 1H6a4 4 0 0 0-4 4v36H1a1 1 0 0 0-1 1v3a4 4 0 0 0 4 4h52a4 4 0 0 0 4-4v-3a1 1 0 0 0-1-1zM30 2a9 9 0 0 1 3.6 17.246 1 1 0 0 0-.6.916V22h-2v-7.586l3.707-3.707-1.414-1.414L30 12.586l-3.293-3.293-1.414 1.414L29 14.414V22h-2v-1.838a1 1 0 0 0-.6-.916A9 9 0 0 1 30 2zm14 26V18h8v18H38v2h5v4a1 1 0 0 0 1 1h5v-2h-4v-3h7v8H22v-3h3v-2H13v-5h-2v6a1 1 0 0 0 1 1h8v3H8V33h8v4a1 1 0 0 0 1 1h11v4a1 1 0 0 0 1 1h11v-2h-5v-8h13a1 1 0 0 0 1-1V21h-2v10h-8v-5h-2v5H21v2h12v8h-3v-4a1 1 0 0 0-1-1H18v-8h4v-2h-5a1 1 0 0 0-1 1v4H8V18h3v10h2v-5h7v-2h-7v-3h8.521A11.005 11.005 0 0 0 25 20.8V22h-2v2h2v3a1 1 0 0 0 1 1h8a1 1 0 0 0 1-1v-3h2v-2h-2v-1.2a11.005 11.005 0 0 0 3.479-2.8H42v10h2zm-11-4v2h-6v-2h6zM4 16a2 2 0 0 1 2-2h13.418c.204.692.477 1.362.813 2H7a1 1 0 0 0-1 1v30a1 1 0 0 0 1 1h46a1 1 0 0 0 1-1V17a1 1 0 0 0-1-1H39.769c.336-.638.608-1.308.813-2H54a2 2 0 0 1 2 2v36H39a1 1 0 0 0-.707.293L36.586 54H23.414l-1.707-1.707A1 1 0 0 0 21 52H4V16zm54 40a2 2 0 0 1-2 2H4a2 2 0 0 1-2-2v-2h18.586l1.707 1.707A1 1 0 0 0 23 56h14a1 1 0 0 0 .707-.293L39.414 54H58v2z" fill="#5FBFCD"/></symbol><symbol id="arrow-left" viewBox="0 0 30 7"><path fill="#000" d="M3.658 7l.73-.7L.733 2.8 0 3.5z"/><path fill="#000" d="M4.39.7L3.657 0 .001 3.5l.73.7z"/><path fill="#000" d="M1 3v1h29V3z"/></symbol><symbol id="arrow-right" viewBox="0 0 30 7"><path fill="#000" d="M26.12 7l-.731-.7 3.657-3.5.731.7z"/><path fill="#000" d="M25.388.7l.732-.7 3.657 3.5-.731.7z"/><path fill="#000" d="M29 3v1H0V3z"/></symbol><symbol id="conversion" viewBox="0 0 30 30"><path d="M2.222 26.667h4.445v-6.111H2.222v6.11zm1.111-5h2.223v1.111H3.333v-1.111zm0 2.222h2.223v1.667H3.333v-1.667zm5.556 2.778h4.444v-9.444H8.89v9.444zM10 18.334h2.222v2.777H10v-2.777zm0 3.889h2.222v3.333H10v-3.333zm5.556 4.444H20V13.334h-4.444v13.333zm1.11-12.222h2.223v4.444h-2.222v-4.444zm0 5.555h2.223v5.556h-2.222V20zm5.556 6.667h4.445V10h-4.445v16.666zm1.111-15.555h2.223v5.555h-2.223v-5.555zm0 6.666h2.223v7.778h-2.223v-7.778zM0 28.89h28.889V7.779H30V30H0v-1.111zM18.01 7.223h-1.343a.556.556 0 1 1 0-1.11h2.777c.307-.001.556.248.556.555v2.777a.556.556 0 0 1-1.111 0V7.903a27.807 27.807 0 0 1-6.096 5.533 27.859 27.859 0 0 1-6.639 3.247l-3.2 1.066a.556.556 0 1 1-.352-1.055l3.2-1.067A26.67 26.67 0 0 0 18.01 7.223zm9.718-3.315a3.333 3.333 0 1 0-6.566-1.148 3.333 3.333 0 0 0 6.566 1.148zm-1.094-.191a2.222 2.222 0 1 1-4.378-.765 2.222 2.222 0 0 1 4.378.765zM25 2.779v1.11a.556.556 0 0 1-1.111 0V2.78a.555.555 0 1 1 1.111 0z"/></symbol><symbol id="design" viewBox="0 0 35 30"><path d="M33.25 15h-.583V2.885C32.665 1.292 31.36.002 29.75 0H5.25C3.64.002 2.335 1.292 2.333 2.885v8.654H1.75A1.74 1.74 0 0 0 0 13.269v15C0 29.225.783 30 1.75 30h22.167a.58.58 0 0 0 .583-.577c-.002-1.592-1.307-2.883-2.917-2.884h-1.75v-3.462h7v5.192c0 .956.784 1.731 1.75 1.731h4.667A1.74 1.74 0 0 0 35 28.27V16.73A1.74 1.74 0 0 0 33.25 15zM12.833 28.27a.58.58 0 0 1-.583.576H1.75a.58.58 0 0 1-.583-.577v-.577h11.666v.577zm0-1.732H1.167V13.27a.58.58 0 0 1 .583-.577h10.5a.58.58 0 0 1 .583.577v13.27zm8.75 1.154c.742.001 1.402.463 1.65 1.154h-9.34c.069-.185.105-.38.107-.577v-.577h7.583zM14 26.538v-3.461h1.167v3.461H14zm2.333 0v-3.461h2.334v3.461h-2.334zm10.5-4.615H14v-3.461h12.833v3.461zm0-5.192v.577H14v-4.039a1.695 1.695 0 0 0-.2-.785c.01-.008.02-.01.03-.019l5.774-5.712a.572.572 0 0 0-.014-.815.588.588 0 0 0-.81 0l-5.776 5.711c-.014.015-.02.033-.032.048a1.745 1.745 0 0 0-.722-.158H3.5V2.885c0-.956.783-1.731 1.75-1.731h24.5c.966 0 1.75.775 1.75 1.73V15h-2.917a1.74 1.74 0 0 0-1.75 1.73zm7 11.538a.58.58 0 0 1-.583.577h-4.667A.58.58 0 0 1 28 28.27v-.577h5.833v.577zm0-1.73H28V16.73a.58.58 0 0 1 .583-.577h4.667a.58.58 0 0 1 .583.577v9.807z"/><path d="M6.966 19.187a.684.684 0 0 0-.94 0L3.202 21.9a.622.622 0 0 0-.016.905.684.684 0 0 0 .957 0l2.822-2.713c.119-.198-.12-.574 0-.905zM10.804 19.18a.64.64 0 0 0-.89 0l-2.718 2.718a.64.64 0 1 0 .906.906l2.718-2.718a.64.64 0 0 0-.016-.906zM22.846 7.165a.454.454 0 0 0-.7 0l-4.992 5.824a.66.66 0 0 0-.012.831.455.455 0 0 0 .725 0l4.991-5.823a.66.66 0 0 0-.012-.832zM32.747 20.233a.829.829 0 0 0-1.151 0l-2.343 2.343a.829.829 0 1 0 1.171 1.171l2.343-2.343a.829.829 0 0 0-.02-1.171zM17.501 20h-.005a.5.5 0 1 0 .005 0zM18.5 3h-2a.5.5 0 0 0 0 1h2a.5.5 0 0 0 0-1z"/></symbol><symbol id="facebook" viewBox="0 0 10 18"><path d="M9.623.004L7.225 0C4.53 0 2.789 1.739 2.789 4.43v2.042H.377A.372.372 0 0 0 0 6.84V9.8c0 .203.169.367.377.367H2.79v7.467c0 .203.169.367.377.367h3.146a.372.372 0 0 0 .378-.367v-7.467h2.82a.372.372 0 0 0 .376-.367l.002-2.96c0-.097-.04-.19-.11-.26a.383.383 0 0 0-.268-.107H6.69V4.741c0-.832.203-1.255 1.317-1.255h1.616A.372.372 0 0 0 10 3.119V.37a.372.372 0 0 0-.377-.367z"/></symbol><symbol id="google" viewBox="0 0 61 61"><path d="M60.935 58.488L41.01 1.748h-.001A1.155 1.155 0 0 0 39.92.975H21.078c-.49 0-.927.31-1.09.772L.065 58.487a1.155 1.155 0 0 0 1.09 1.538h14.94a6.667 6.667 0 0 0 6.283-4.453L30.5 32.444l8.12 23.129a6.667 6.667 0 0 0 6.284 4.453h14.94a1.155 1.155 0 0 0 1.09-1.538zm-40.736-3.68a4.354 4.354 0 0 1-4.103 2.907H2.785l19.113-54.43H38.29L20.199 54.807zm24.705 2.908a4.354 4.354 0 0 1-4.104-2.908l-9.076-25.85L39.92 5.617l18.295 52.099H44.904z"/></symbol><symbol id="header-logo" viewBox="0 0 89 17"><path d="M12.962 13h-1.926V8.368c0-.89-.127-1.535-.382-1.934-.249-.398-.672-.598-1.27-.598-.503 0-.932.252-1.286.756-.349.503-.523 1.107-.523 1.81V13H5.64V8.21c0-1.582-.56-2.374-1.677-2.374-.52 0-.95.238-1.287.714-.332.476-.498 1.093-.498 1.851V13H.253V4.5H2.18v1.345h.033C2.827 4.815 3.72 4.3 4.894 4.3c.586 0 1.098.163 1.535.49.443.32.744.744.905 1.27.63-1.174 1.572-1.76 2.822-1.76 1.87 0 2.806 1.154 2.806 3.461V13zm10.906-3.727h-5.794c.022.786.263 1.392.722 1.818.465.426 1.101.639 1.91.639.907 0 1.74-.271 2.498-.814v1.553c-.775.487-1.799.73-3.072.73-1.25 0-2.232-.384-2.946-1.154-.709-.774-1.063-1.862-1.063-3.262 0-1.322.39-2.399 1.17-3.229.786-.835 1.76-1.253 2.922-1.253 1.163 0 2.062.373 2.698 1.12.637.747.955 1.785.955 3.113v.739zm-1.86-1.361c-.005-.692-.168-1.229-.49-1.61-.32-.388-.763-.582-1.327-.582-.554 0-1.024.202-1.412.606-.381.404-.617.933-.705 1.586h3.934zM34.79 13h-1.925v-1.444h-.034c-.62 1.095-1.574 1.643-2.863 1.643-1.046 0-1.885-.379-2.516-1.137-.625-.764-.938-1.801-.938-3.113 0-1.405.346-2.532 1.038-3.378.697-.847 1.624-1.27 2.78-1.27 1.146 0 1.98.46 2.5 1.378h.032V.416h1.926V13zm-1.9-3.885V8.003c0-.603-.197-1.115-.59-1.536-.393-.42-.894-.63-1.502-.63-.72 0-1.287.268-1.702.805-.41.536-.614 1.28-.614 2.233 0 .863.196 1.546.59 2.05.398.498.931.747 1.601.747.659 0 1.193-.24 1.602-.722.41-.487.614-1.099.614-1.835zm6.747-6.4c-.316 0-.587-.102-.814-.307a1.016 1.016 0 0 1-.332-.78c0-.315.11-.578.332-.789.227-.21.498-.315.814-.315.326 0 .603.105.83.315.227.21.34.474.34.789 0 .299-.113.556-.34.772-.227.21-.504.315-.83.315zM40.59 13h-1.925V4.5h1.925V13zM51 13h-1.868v-1.328h-.033c-.586 1.018-1.447 1.527-2.581 1.527-.836 0-1.492-.227-1.968-.68-.47-.454-.705-1.055-.705-1.802 0-1.605.924-2.54 2.772-2.805l2.524-.357c0-1.212-.576-1.818-1.727-1.818-1.013 0-1.926.348-2.74 1.046V5.098c.897-.532 1.932-.797 3.105-.797C49.926 4.3 51 5.358 51 7.47V13zm-1.86-4.175l-1.784.249c-.553.072-.971.207-1.253.406-.277.194-.415.537-.415 1.03 0 .36.127.655.381.888.26.227.606.34 1.038.34.587 0 1.07-.204 1.453-.614.387-.415.58-.935.58-1.56v-.74zm12.218 2.947h-.033V13h-1.926V.416h1.926v5.578h.033c.659-1.129 1.621-1.693 2.889-1.693 1.073 0 1.912.382 2.515 1.145.609.758.913 1.777.913 3.055 0 1.422-.34 2.562-1.021 3.42-.68.852-1.61 1.278-2.789 1.278-1.107 0-1.942-.476-2.507-1.428zm-.05-3.379v1.054c0 .62.197 1.146.59 1.577.398.432.902.648 1.51.648.714 0 1.273-.277 1.677-.83.41-.56.614-1.337.614-2.333 0-.835-.19-1.488-.572-1.959-.377-.476-.889-.714-1.536-.714-.686 0-1.24.244-1.66.73-.415.488-.623 1.097-.623 1.827zM77.327 13h-1.868v-1.328h-.033c-.587 1.018-1.448 1.527-2.582 1.527-.835 0-1.491-.227-1.967-.68-.47-.454-.706-1.055-.706-1.802 0-1.605.924-2.54 2.773-2.805l2.523-.357c0-1.212-.575-1.818-1.726-1.818-1.013 0-1.926.348-2.74 1.046V5.098c.897-.532 1.932-.797 3.105-.797 2.147 0 3.22 1.057 3.22 3.17V13zm-1.86-4.175l-1.784.249c-.554.072-.972.207-1.254.406-.277.194-.415.537-.415 1.03 0 .36.127.655.382.888.26.227.606.34 1.037.34.587 0 1.071-.204 1.453-.614.387-.415.581-.935.581-1.56v-.74zM88.407 4.5l-3.835 9.861c-.797 1.76-1.915 2.64-3.354 2.64-.404 0-.741-.036-1.013-.108v-1.602c.305.1.582.15.83.15.72 0 1.257-.355 1.611-1.063l.573-1.395L79.84 4.5h2.134l2.025 6.176c.022.077.072.282.15.614h.04c.029-.127.078-.326.15-.598L86.464 4.5h1.943z" fill="#000"/></symbol><symbol id="instagram" viewBox="0 0 20 20"><path d="M14.19 0H5.81A5.816 5.816 0 0 0 0 5.81v8.38A5.816 5.816 0 0 0 5.81 20h8.38A5.816 5.816 0 0 0 20 14.19V5.81A5.816 5.816 0 0 0 14.19 0zm4.248 14.19a4.252 4.252 0 0 1-4.248 4.248H5.81a4.252 4.252 0 0 1-4.247-4.248V5.81A4.252 4.252 0 0 1 5.81 1.563h8.38a4.252 4.252 0 0 1 4.248 4.247v8.38z"/><path d="M10 4.61A5.397 5.397 0 0 0 4.61 10 5.397 5.397 0 0 0 10 15.39 5.397 5.397 0 0 0 15.39 10 5.397 5.397 0 0 0 10 4.61zm0 9.218A3.832 3.832 0 0 1 6.172 10 3.832 3.832 0 0 1 10 6.172 3.832 3.832 0 0 1 13.828 10 3.832 3.832 0 0 1 10 13.828zM15.469 5.313a.781.781 0 1 0 0-1.563.781.781 0 0 0 0 1.563z"/></symbol><symbol id="marketing" viewBox="0 0 30 30"><path d="M29.516 0H.484A.483.483 0 0 0 0 .484v29.032c0 .268.216.484.484.484h29.032a.483.483 0 0 0 .484-.484V.484A.483.483 0 0 0 29.516 0zm-.484.968v4.838H.968V.968h28.064zM.968 29.032V6.774h28.064v22.258H.968z"/><path d="M3.5 5C4.327 5 5 4.327 5 3.5S4.327 2 3.5 2 2 2.673 2 3.5 2.673 5 3.5 5zm0-2a.5.5 0 1 1 0 1 .5.5 0 0 1 0-1zM7.5 5C8.327 5 9 4.327 9 3.5S8.327 2 7.5 2 6 2.673 6 3.5 6.673 5 7.5 5zm0-2a.5.5 0 1 1 0 1 .5.5 0 0 1 0-1zM11.5 5c.827 0 1.5-.673 1.5-1.5S12.327 2 11.5 2 10 2.673 10 3.5 10.673 5 11.5 5zm0-2a.5.5 0 1 1 0 1 .5.5 0 0 1 0-1zM14.536 16.036H8.964v-5.572A.464.464 0 0 0 8.5 10 6.507 6.507 0 0 0 2 16.5C2 20.084 4.916 23 8.5 23s6.5-2.916 6.5-6.5a.464.464 0 0 0-.464-.464zm-6.5-.657l-3.128-3.128a5.54 5.54 0 0 1 3.128-1.303v4.431zm.464 6.692A5.577 5.577 0 0 1 2.929 16.5c0-1.37.5-2.62 1.323-3.592l3.92 3.92c.083.084.2.136.328.136h5.552A5.58 5.58 0 0 1 8.5 22.071z"/><path d="M11.4 8c-.221 0-.4.209-.4.467v6.066c0 .258.179.467.4.467h5.2c.221 0 .4-.209.4-.467C17 10.931 14.488 8 11.4 8zm.4 6.067V8.952c2.328.225 4.19 2.399 4.384 5.115H11.8zM27 8h1v1h-1V8zM18 8h8v1h-8V8zM27 10h1v1h-1v-1zM18 10h8v1h-8v-1zM27 12h1v1h-1v-1zM18 12h8v1h-8v-1zM27 14h1v1h-1v-1zM18 14h8v1h-8v-1zM27 15h1v1h-1v-1zM18 15h8v1h-8v-1zM19.5 21h-2a.5.5 0 0 0-.5.5v6a.5.5 0 0 0 .5.5h2a.5.5 0 0 0 .5-.5v-6a.5.5 0 0 0-.5-.5zm-.5 6h-1v-5h1v5zM15.667 23h-1.334c-.184 0-.333.223-.333.5v4c0 .277.149.5.333.5h1.334c.184 0 .333-.223.333-.5v-4c0-.277-.149-.5-.333-.5zm-.334 4h-.666v-3h.666v3zM23.5 19h-2a.5.5 0 0 0-.5.5v8a.5.5 0 0 0 .5.5h2a.5.5 0 0 0 .5-.5v-8a.5.5 0 0 0-.5-.5zm-.5 8h-1v-7h1v7zM27.5 17h-2a.5.5 0 0 0-.5.5v10a.5.5 0 0 0 .5.5h2a.5.5 0 0 0 .5-.5v-10a.5.5 0 0 0-.5-.5zM27 27h-1v-9h1v9z"/></symbol><symbol id="new-site" viewBox="0 0 60 60"><path d="M56 0H4a4 4 0 0 0-4 4v52a4 4 0 0 0 4 4h52a4 4 0 0 0 4-4V4a4 4 0 0 0-4-4zm2 56a2 2 0 0 1-2 2H4a2 2 0 0 1-2-2V10h56v46zm0-48H2V4a2 2 0 0 1 2-2h52a2 2 0 0 1 2 2v4z"/><path d="M56 4h-2v2h2V4zM52 4h-2v2h2V4zM48 4h-2v2h2V4zM54 13H6a1 1 0 0 0-1 1v6a1 1 0 0 0 1 1h48a1 1 0 0 0 1-1v-6a1 1 0 0 0-1-1zm-1 6H7v-4h46v4zM55 50H5v2h50v-2zM55 45H5v2h50v-2zM54 25h-9a1 1 0 0 0-1 1v14a1 1 0 0 0 1 1h9a1 1 0 0 0 1-1V26a1 1 0 0 0-1-1zm-1.832 2L49.5 31.151 46.832 27h5.336zM46 29.41L48.311 33 46 36.6v-7.19zm.832 9.59l2.668-4.151L52.168 39h-5.336zM53 36.6L50.689 33 53 29.405V36.6zM41 25H6a1 1 0 0 0-1 1v14a1 1 0 0 0 1 1h35a1 1 0 0 0 1-1V26a1 1 0 0 0-1-1zm-1 14H7V27h33v12z"/><path d="M33 30H10v2h23v-2zM37 34H10v2h27v-2zM37 30h-2v2h2v-2z"/></symbol><symbol id="old-site" viewBox="0 0 60 60"><path d="M56 0H4a4 4 0 0 0-4 4v52a4 4 0 0 0 4 4h52a4 4 0 0 0 4-4V4a4 4 0 0 0-4-4zm2 56a2 2 0 0 1-2 2H4a2 2 0 0 1-2-2V10h56v46zm0-48H2V4a2 2 0 0 1 2-2h52a2 2 0 0 1 2 2v4z"/><path d="M56 4h-2v2h2V4zM52 4h-2v2h2V4zM48 4h-2v2h2V4z"/></symbol><symbol id="promotion" viewBox="0 0 61 61"><path d="M4.066 12.194h2.033v2.033H4.066v-2.033zM8.132 12.193h2.033v2.033H8.132v-2.033zM12.198 12.193h2.033v2.033h-2.033v-2.033z"/><path d="M56.316 10.269l.797-5.233a1.017 1.017 0 0 0-1.158-1.158l-5.236.794-3.14-4.27a1.056 1.056 0 0 0-1.638 0l-3.139 4.27-5.233-.797a1.016 1.016 0 0 0-1.158 1.158l.47 3.095H4.067A4.066 4.066 0 0 0 0 12.194v44.727a4.066 4.066 0 0 0 4.066 4.067H52.86a4.066 4.066 0 0 0 4.066-4.067v-32.76c.155-.214.221-.48.184-.742l-.794-5.233 4.27-3.14a1.016 1.016 0 0 0 0-1.638l-4.27-3.14zm-52.25-.108h33.125l.017.108-4.27 3.139a1.017 1.017 0 0 0 0 1.639l1.654 1.213H2.034v-4.066c0-1.123.91-2.033 2.033-2.033zM52.86 58.955H4.066a2.033 2.033 0 0 1-2.033-2.034V18.293h35.158l-.78 5.126a1.016 1.016 0 0 0 1.158 1.157l3.092-.47v11.468a1.016 1.016 0 0 0 1.652.794l4.447-3.559 4.448 3.558a1.016 1.016 0 0 0 1.651-.793V24.106l2.034.305v32.51c0 1.123-.91 2.034-2.034 2.034zM42.694 23.797l.108-.018 3.139 4.27a1.017 1.017 0 0 0 1.639 0l3.139-4.27.108.018v9.657l-3.431-2.745a1.017 1.017 0 0 0-1.271 0l-3.43 2.75v-9.662zm11.919-6.885a1.017 1.017 0 0 0-.407.972l.687 4.476-4.473-.682c-.375-.056-.749.101-.972.407l-2.688 3.641-2.684-3.646a1.016 1.016 0 0 0-.967-.403l-4.48.683.68-4.473c.056-.375-.1-.75-.406-.972l-3.642-2.688 3.647-2.684c.306-.223.462-.598.406-.972l-.686-4.476 4.473.681c.374.056.749-.1.972-.407l2.687-3.64 2.685 3.646c.223.305.597.462.972.406l4.476-.686-.681 4.473c-.056.374.1.748.406.972l3.641 2.687-3.646 2.685z"/><path d="M45.744 13.21h2.033v2.034h-2.033v-2.033z"/><path d="M46.76 8.128a6.1 6.1 0 1 0 0 12.198 6.1 6.1 0 0 0 0-12.198zm0 10.165a4.066 4.066 0 1 1 0-8.132 4.066 4.066 0 0 1 0 8.132zM34.562 32.524c0-.561-.455-1.016-1.017-1.016h-5.082c-.562 0-1.017.455-1.017 1.016v21.347h-3.05V37.608c0-.561-.455-1.017-1.016-1.017h-5.083c-.561 0-1.016.456-1.016 1.017v16.264h-3.05V42.69c0-.562-.455-1.017-1.016-1.017H8.132c-.561 0-1.016.455-1.016 1.017V53.87H5.083v2.033h31.512v-2.033h-2.033V32.524zM9.149 53.871V43.706h3.05v10.165h-3.05zm10.165 0V38.623h3.05v15.248h-3.05zm10.165 0v-20.33h3.05v20.33h-3.05zM9.149 21.343h2.033v2.033H9.149v-2.033zM13.215 21.343h20.33v2.033h-20.33v-2.033zM5.083 25.41h28.462v2.032H5.083V25.41zM5.083 29.475h19.314v2.033H5.083v-2.033zM39.645 41.673h2.033v2.033h-2.033v-2.033zM43.71 41.673h8.133v2.033H43.71v-2.033zM39.645 45.74h12.198v2.032H39.644V45.74zM39.645 49.806h12.198v2.033H39.644v-2.033zM39.645 53.872h12.198v2.033H39.644v-2.033z"/></symbol><symbol id="sea" viewBox="0 0 60 58"><path d="M24 23.5h2c0-2.2 1.8-4 4-4v-2c-3.3 0-6 2.7-6 6z"/><path d="M59 49.5h-1v-36c0-2.2-1.8-4-4-4h-7v-5c0-2.2-1.8-4-4-4H17c-2.2 0-4 1.8-4 4v5H6c-2.2 0-4 1.8-4 4v36H1c-.6 0-1 .4-1 1v3c0 2.2 1.8 4 4 4h52c2.2 0 4-1.8 4-4v-3c0-.6-.4-1-1-1zm-12-33h4v27h-4v-27zm-32-12c0-1.1.9-2 2-2h26c1.1 0 2 .9 2 2v4H15v-4zm0 6h30v33H33v-6c0-.6-.4-1-1-1h-1v-3.1c5.1-.5 9-4.8 9-9.9 0-5.5-4.5-10-10-10s-10 4.5-10 10c0 5.2 3.9 9.4 9 9.9v3.1h-1c-.6 0-1 .4-1 1v6H15v-33zm16 28v5h-2v-5h2zm-1-7c-4.4 0-8-3.6-8-8s3.6-8 8-8 8 3.6 8 8-3.6 8-8 8zm-26-18c0-1.1.9-2 2-2h7v3H8c-.6 0-1 .4-1 1v29c0 .6.4 1 1 1h44c.6 0 1-.4 1-1v-29c0-.6-.4-1-1-1h-5v-3h7c1.1 0 2 .9 2 2v36H39c-.3 0-.5.1-.7.3l-1.7 1.7H23.4l-1.7-1.7c-.2-.2-.4-.3-.7-.3H4v-36zm9 3v27H9v-27h4zm45 37c0 1.1-.9 2-2 2H4c-1.1 0-2-.9-2-2v-2h18.6l1.7 1.7c.2.2.4.3.7.3h14c.3 0 .5-.1.7-.3l1.7-1.7H58v2z"/><path d="M29 47.5h2v2h-2v-2zM17 4.5h2v2h-2v-2zM21 4.5h2v2h-2v-2zM25 4.5h2v2h-2v-2zM31.7 19.9c.5.2.9.6 1.3 1l1.5-1.3c-.5-.6-1.2-1.1-1.9-1.4l-.9 1.7z"/></symbol><symbol id="seo" viewBox="0 0 60 60"><path d="M47 10h-2v2h2v-2zM43 10h-2v2h2v-2zM39 10h-2v2h2v-2zM15 10h-2v2h2v-2zM32 55h-4a1 1 0 1 0 0 2h4a1 1 0 0 0 0-2z"/><path d="M60 24c-.008-5.3-3.79-9.84-9-10.809V5a5.006 5.006 0 0 0-5-5H14a5.006 5.006 0 0 0-5 5v14H1a1 1 0 0 0-1 1v20a1 1 0 0 0 1 1h8v14a5.006 5.006 0 0 0 5 5h32a5.006 5.006 0 0 0 5-5v-4.184A3 3 0 0 0 53 48v-8a2.985 2.985 0 0 0-1-2.22v-3.206A11.013 11.013 0 0 0 60 24zm-2 0a9 9 0 1 1-9-9 9.01 9.01 0 0 1 9 9zM14 2h32a3 3 0 0 1 3 3v1H11V5a3 3 0 0 1 3-3zM2 21h32v18H2V21zm33 20a1 1 0 0 0 1-1V20a1 1 0 0 0-1-1H11V8h38v5a10.995 10.995 0 1 0-3 21.574v3.206A2.985 2.985 0 0 0 45 40v8a3 3 0 0 0 3 3h1v1H11V41h24zm11 17H14a3 3 0 0 1-3-3v-1h38v1a3 3 0 0 1-3 3zm5-10a1 1 0 0 1-1 1h-2a1 1 0 0 1-1-1v-8a1 1 0 0 1 1-1h2a1 1 0 0 1 1 1v8zm-1-13v2h-2v-2h2z"/><path d="M41 24h2a6.006 6.006 0 0 1 6-6v-2a8.01 8.01 0 0 0-8 8zM8 23H4v2h4v-2zM32 23H10v2h22v-2zM8 27H4v2h4v-2zM32 27H10v2h22v-2zM8 31H4v2h4v-2zM32 31H10v2h22v-2zM8 35H4v2h4v-2zM32 35H10v2h22v-2z"/></symbol><symbol id="smm" viewBox="0 0 58 60"><path d="M26.503 4h2v2h-2V4zM30.503 4h2v2h-2V4zM33.503 15h2v2h-2v-2zM20.503 35h2v2h-2v-2zM28.503 54h2v2h-2v-2z"/><path d="M14.503 60h30a4 4 0 0 0 4-4V45h8a1 1 0 0 0 1-1V28a1 1 0 0 0-1-1h-8V4a4 4 0 0 0-4-4h-30a4 4 0 0 0-4 4v11h-4a2 2 0 0 0-2 2v.1a5 5 0 0 0 0 9.8v.1a2 2 0 0 0 2 2v10a3 3 0 0 0 3 3c.342-.003.68-.066 1-.184V56a4 4 0 0 0 4 4zm-2-32.83V16.83l14-2.63v15.6l-14-2.63zm2 2.41V31h-2v-1.8l2 .38zm30 28.42h-30a2 2 0 0 1-2-2v-4h34v4a2 2 0 0 1-2 2zm11-15h-18V29h18v14zm-19-16a1 1 0 0 0-1 1v16a1 1 0 0 0 1 1h10v5h-34V33h3a1 1 0 0 0 1-1v-2.045l10.816 2.028A1 1 0 0 0 28.503 31V13a1 1 0 0 0-1.184-.983L12.503 14.8V10h34v17h-10zm-22-25h30a2 2 0 0 1 2 2v4h-34V4a2 2 0 0 1 2-2zm-8 15h4v10h-4V17zm-4 5a3.006 3.006 0 0 1 2-2.829v5.658a3.006 3.006 0 0 1-2-2.829zm8 7v6h-2v-6h2zm-1 11a1 1 0 0 1-1-1v-2h2v2a1 1 0 0 1-1 1z"/><path d="M41.942 40.828a1 1 0 0 0 .933.1l10-4a1 1 0 0 0 0-1.858l-10-4a1 1 0 0 0-1.372.93v8a1 1 0 0 0 .439.828zm1.56-7.35L49.812 36l-6.308 2.523v-5.046zM16.503 39h16v2h-16v-2zM16.503 43h13v2h-13v-2zM24.503 35h8v2h-8v-2zM31.503 19h12v2h-12v-2zM31.503 23h9v2h-9v-2zM37.503 15h6v2h-6v-2z"/></symbol><symbol id="texts" viewBox="0 0 28 28"><path clip-rule="evenodd" d="M23.977 0H9.717a.541.541 0 0 0-.087.01h-.002a.53.53 0 0 0-.146.052l-.004.002a.543.543 0 0 0-.06.038l-.014.01a.553.553 0 0 0-.055.048L3.66 5.85a.551.551 0 0 0-.047.055l-.011.014a.565.565 0 0 0-.038.06l-.002.004a.503.503 0 0 0-.051.146v.002a.526.526 0 0 0-.01.068v.02l-.001.017v21.218c0 .302.245.547.547.547h19.93a.547.547 0 0 0 .547-.547V.547A.546.546 0 0 0 23.977 0zM9.19 1.867V5.69H5.367L9.19 1.867zm14.242 25.04H4.594V6.781h5.141a.547.547 0 0 0 .547-.547V1.094h13.149v25.812z"/><path clip-rule="evenodd" d="M17.706 22.107a.552.552 0 0 0 .01.064l.004.013a.504.504 0 0 0 .045.119l.001.004.002.004.002.003 1.565 2.968a.547.547 0 0 0 .968 0l1.565-2.968.001-.003.003-.004.002-.005a.573.573 0 0 0 .024-.053l.005-.015a.536.536 0 0 0 .015-.05l.004-.013a.522.522 0 0 0 .01-.064v-.005a.585.585 0 0 0 .003-.05v-4.464a.547.547 0 1 0-1.094 0v3.917h-2.044V9.295h2.044v3.918a.547.547 0 1 0 1.094 0V5.94a.547.547 0 0 0-.547-.546H18.25a.547.547 0 0 0-.547.546v16.112c0 .017.001.033.003.05v.005zm2.775.492l-.662 1.255-.662-1.255h1.324zM18.797 6.488h2.044v1.714h-2.044V6.488zM8.969 9.66a.547.547 0 1 0 0 1.093h4.36a.547.547 0 0 0 0-1.093h-4.36zM6.207 12.613c0 .302.245.547.547.547h8.79a.547.547 0 1 0 0-1.094h-8.79a.547.547 0 0 0-.547.547zM15.543 14.472h-8.79a.547.547 0 1 0 0 1.094h8.79a.547.547 0 1 0 0-1.094zM15.543 16.878h-8.79a.547.547 0 1 0 0 1.094h8.79a.547.547 0 0 0 0-1.094zM15.543 19.285h-8.79a.547.547 0 1 0 0 1.094h8.79a.547.547 0 0 0 0-1.094z"/></symbol><symbol id="ui-ux" viewBox="0 0 56 60"><path d="M12 4h-2v2h2V4zM16 4h-2v2h2V4zM20 4h-2v2h2V4z"/><path d="M52 0H10a4 4 0 0 0-4 4v18H1a1 1 0 0 0-1 1v18a1 1 0 0 0 1 1h5v3H1a1 1 0 0 0-1 1v8a1 1 0 0 0 1 1h5v1a4 4 0 0 0 4 4h42a4 4 0 0 0 4-4V4a4 4 0 0 0-4-4zM6 53H2v-6h4v6zM2 40V24h26v16H2zm6 7h2v6H8v-6zm46 9a2 2 0 0 1-2 2H10a2 2 0 0 1-2-2v-1h34a.998.998 0 0 0 .447-.1l8-4a1 1 0 0 0 0-1.79l-8-4a.99.99 0 0 0-.415-.1c-.011 0-.021-.008-.032-.008H8V42h21a1 1 0 0 0 1-1V23a1 1 0 0 0-1-1H8V10h46v46zm-13-5v2H12v-2h29zm-29-2v-2h29v2H12zm31 3.382v-4.764L47.764 50 43 52.382zM54 8H8V4a2 2 0 0 1 2-2h42a2 2 0 0 1 2 2v4z"/><path d="M11.6 29.8l-1.2-1.6-4 3a1 1 0 0 0 0 1.6l4 3 1.2-1.6L8.667 32l2.933-2.2zM23.8 31.4a1.003 1.003 0 0 0-.2-.2l-4-3-1.2 1.6 2.933 2.2-2.933 2.2 1.2 1.6 4-3a1 1 0 0 0 .2-1.4zM16.07 26.63l-4 9.998 1.857.743 4-9.999-1.856-.743zM30 17H11v2h19v-2zM30 13H15v2h15v-2zM13 13h-2v2h2v-2zM51 40H36v2h15v-2zM34 40h-2v2h2v-2zM47 29.475a9 9 0 1 0-10 0V31h-2v2h2v3a1 1 0 0 0 1 1h8a1 1 0 0 0 1-1v-3h2v-2h-2v-1.525zM45 35h-6v-2h6v2zm.5-6.944a1 1 0 0 0-.5.865V31h-2v-5.586l2.707-2.707-1.414-1.414L42 23.586l-2.293-2.293-1.414 1.414L41 25.414V31h-2v-2.079a1 1 0 0 0-.5-.865A7 7 0 0 1 42 15a7 7 0 0 1 3.5 13.056z"/></symbol><symbol id="vk" viewBox="0 0 27 15"><path d="M26.857 13.547a1.79 1.79 0 0 0-.092-.171c-.468-.822-1.363-1.83-2.685-3.026l-.028-.027-.014-.014-.014-.013h-.014c-.6-.557-.98-.931-1.139-1.123-.29-.365-.356-.735-.197-1.109.113-.283.535-.88 1.266-1.793.384-.484.688-.871.913-1.163 1.622-2.1 2.325-3.44 2.109-4.025l-.084-.136c-.056-.082-.201-.158-.435-.226-.235-.069-.535-.08-.9-.034l-4.049.027a.539.539 0 0 0-.281.007l-.183.041-.07.034-.056.041a.617.617 0 0 0-.155.144.932.932 0 0 0-.14.24 22.104 22.104 0 0 1-1.505 3.08 29.114 29.114 0 0 1-.956 1.471c-.29.415-.534.72-.73.917a5.052 5.052 0 0 1-.535.472c-.16.119-.28.17-.365.15a10.524 10.524 0 0 1-.24-.054.92.92 0 0 1-.315-.335 1.472 1.472 0 0 1-.162-.534 5.718 5.718 0 0 1-.05-.555c-.004-.155-.002-.374.008-.657.01-.283.014-.474.014-.575 0-.347.007-.723.02-1.129.015-.406.026-.728.036-.965.01-.237.014-.488.014-.753s-.017-.472-.05-.623a2.088 2.088 0 0 0-.146-.438.743.743 0 0 0-.289-.328 1.65 1.65 0 0 0-.47-.185C14.39.07 13.757.01 12.988.002c-1.743-.018-2.863.091-3.36.329-.196.1-.374.237-.533.41-.17.2-.193.31-.07.329.561.082.96.278 1.194.588l.084.164c.066.12.132.33.197.63.066.301.108.634.127 1a10.37 10.37 0 0 1 0 1.71c-.047.475-.091.844-.134 1.11-.042.264-.105.478-.19.642-.084.165-.14.265-.168.301a.24.24 0 0 1-.07.069 1.078 1.078 0 0 1-.38.069c-.131 0-.29-.064-.478-.192a3.34 3.34 0 0 1-.583-.527 7.05 7.05 0 0 1-.682-.938 16.228 16.228 0 0 1-.788-1.423l-.224-.398c-.141-.255-.333-.627-.577-1.115-.244-.488-.46-.96-.646-1.417A.905.905 0 0 0 5.37.905L5.3.864a.97.97 0 0 0-.225-.116 1.523 1.523 0 0 0-.323-.09L.9.687c-.394 0-.66.087-.801.26l-.057.082a.433.433 0 0 0-.042.22c0 .1.028.223.084.369A44.664 44.664 0 0 0 1.92 5.34c.66 1.196 1.235 2.158 1.722 2.888.487.73.984 1.42 1.49 2.067.506.648.841 1.063 1.005 1.246.164.182.293.32.387.41l.351.329c.225.219.555.481.991.787.436.306.919.607 1.448.904.53.296 1.146.538 1.849.725a6.555 6.555 0 0 0 2.052.226h1.617c.328-.028.576-.128.745-.301l.056-.069a.896.896 0 0 0 .105-.253c.033-.114.05-.24.05-.376-.01-.393.02-.746.09-1.061.07-.315.15-.552.24-.712.09-.16.19-.294.302-.403.113-.11.193-.176.24-.199a.953.953 0 0 1 .112-.048c.225-.073.49-.002.794.213.305.214.59.479.858.793.267.315.588.669.963 1.061.375.393.703.684.984.876l.28.165c.188.11.432.21.732.3.3.092.562.115.787.07l3.599-.055c.356 0 .633-.058.829-.172.197-.114.314-.24.351-.376.038-.137.04-.292.008-.466a1.688 1.688 0 0 0-.1-.362z"/></symbol><symbol id="yandex" viewBox="0 0 33 61"><path d="M21.796 8.346h-1.893c-2.253 0-4.29 1.048-5.737 2.95-1.645 2.164-2.479 5.3-2.479 9.32 0 3.477.784 6.386 2.265 8.411 1.567 2.142 3.852 3.275 6.608 3.275h1.236c.671 0 1.215-.544 1.215-1.215V9.56c0-.671-.544-1.215-1.215-1.215zM20.581 29.87h-.021c-4.095 0-6.443-3.373-6.443-9.254 0-7.256 2.989-9.84 5.785-9.84h.679V29.87z"/><path d="M31.189 1.06C30.486.376 29.51 0 28.443 0h-8.321c-4.813 0-9.254 1.855-12.505 5.223-3.695 3.828-5.648 9.404-5.648 16.126 0 7.151 2.915 12.94 8.24 16.436L.527 55.309c-.696 1.257-.703 2.702-.018 3.864C1.183 60.317 2.403 61 3.773 61h5.182c1.637 0 2.992-.842 3.631-2.256l7.995-15.637v14.336c0 1.928 1.628 3.557 3.554 3.557h4.527c2.103 0 3.63-1.526 3.63-3.63V3.779c0-1.06-.392-2.026-1.103-2.718zm-1.327 56.31c0 .752-.449 1.2-1.2 1.2h-4.527c-.599 0-1.124-.527-1.124-1.127V39.432c0-.671-.544-1.215-1.215-1.215h-.7c-.457 0-.875.255-1.083.662l-9.605 18.787-.03.062c-.246.558-.725.841-1.423.841H3.773c-.507 0-.934-.23-1.17-.63-.244-.413-.225-.956.05-1.454l10.245-18.542a1.215 1.215 0 0 0-.462-1.643C7.178 33.302 4.4 28.132 4.4 21.35c0-13.07 7.897-18.92 15.723-18.92h8.321c.438 0 .801.129 1.05.372.241.234.368.571.368.976v53.593z"/></symbol></svg>